<?xml version="1.0" encoding="utf-8"?>
<!-- Generator: Adobe Illustrator 19.2.1, SVG Export Plug-In . SVG Version: 6.00 Build 0)  -->
<svg version="1.1" id="Layer_1" xmlns="http://www.w3.org/2000/svg" xmlns:xlink="http://www.w3.org/1999/xlink" x="0px" y="0px"
	 viewBox="0 0 33 33" style="enable-background:new 0 0 33 33;" xml:space="preserve">
<style type="text/css">
	.st0{fill:#FFFFFF;}
</style>
<g>
	<g>
		<path class="st0" d="M16.4,2c7.9,0,14.4,6.5,14.4,14.4s-6.5,14.4-14.4,14.4C8.5,30.8,2,24.4,2,16.4S8.5,2,16.4,2 M16.4,0
			C7.4,0,0,7.4,0,16.4c0,9.1,7.4,16.4,16.4,16.4c9.1,0,16.4-7.3,16.4-16.4C32.8,7.4,25.5,0,16.4,0L16.4,0z"/>
	</g>
	<g>
		<path class="st0" d="M13.8,26h3.9c0,0,0-5.3,0-9.6h3l0.4-3.4h-3.4V11c0-0.7,0.3-0.8,0.7-0.8c0.4,0,2.7,0,2.7,0V6.9l-3.2,0
			c-3.5,0-4.1,2.4-4.1,4v2.2h-2.2v3.4h2.2C13.8,20.8,13.8,26,13.8,26z"/>
	</g>
</g>
</svg>
