<?xml version="1.0" encoding="UTF-8" standalone="no"?>
<svg width="33px" height="33px" viewBox="0 0 33 33" version="1.1" xmlns="http://www.w3.org/2000/svg" xmlns:xlink="http://www.w3.org/1999/xlink" xmlns:sketch="http://www.bohemiancoding.com/sketch/ns">
    <!-- Generator: Sketch 3.5.2 (25235) - http://www.bohemiancoding.com/sketch -->
    <title>icon-dribbble-color</title>
    <desc>Created with Sketch.</desc>
    <defs></defs>
    <g id="Home-Page" stroke="none" stroke-width="1" fill="none" fill-rule="evenodd" sketch:type="MSPage">
        <g id="tlg-homepage-design-r2" sketch:type="MSArtboardGroup" transform="translate(-236.000000, -3547.000000)">
            <g id="Footer" sketch:type="MSLayerGroup" transform="translate(159.000000, 3277.000000)">
                <g id="dribbble" transform="translate(74.000000, 39.000000)" sketch:type="MSShapeGroup">
                    <g id="icon-dribbble-color" transform="translate(3.000000, 231.000000)">
                        <g id="Dribbble-circle-color">
                            <g id="Page-1">
                                <g id="SOCIAL-ICONS-SKETCH">
                                    <g id="FULL-COLOR">
                                        <g id="Dribbble">
                                            <path d="M32.7822857,16.3264286 C32.7822857,25.3127143 25.4978571,32.5975714 16.5115714,32.5975714 C7.52528571,32.5975714 0.240428571,25.3127143 0.240428571,16.3264286 C0.240428571,7.34014286 7.52528571,0.0552857143 16.5115714,0.0552857143 C25.4978571,0.0552857143 32.7822857,7.34014286 32.7822857,16.3264286" id="Dribbble-Circle" fill="#E64C87"></path>
                                            <path d="M23.7518571,13.224 C23.556,12.7581429 23.3112857,12.3094286 23.0275714,11.8898571 C22.7472857,11.4737143 22.4241429,11.082 22.0692857,10.7271429 C21.7131429,10.3714286 21.3222857,10.0491429 20.9057143,9.768 C20.4861429,9.48342857 20.037,9.24042857 19.5711429,9.04242857 C19.0958571,8.84314286 18.5987143,8.68757143 18.0942857,8.58514286 C17.5765714,8.47885714 17.0442857,8.42442857 16.512,8.42442857 C15.9788571,8.42442857 15.4465714,8.47885714 14.9288571,8.58514286 C14.424,8.68757143 13.9268571,8.84314286 13.452,9.04242857 C12.9861429,9.24042857 12.537,9.48342857 12.1165714,9.768 C11.7004286,10.0491429 11.3095714,10.3714286 10.9538571,10.7271429 C10.599,11.082 10.2762857,11.4737143 9.99557143,11.8898571 C9.71185714,12.3094286 9.46671429,12.7581429 9.27085714,13.224 C9.06942857,13.6988571 8.91514286,14.1972857 8.81142857,14.7017143 C8.70642857,15.2181429 8.65285714,15.7504286 8.65285714,16.2827143 C8.65285714,16.8167143 8.70642857,17.349 8.81142857,17.8667143 C8.91514286,18.3711429 9.06942857,18.8682857 9.27085714,19.3422857 C9.46671429,19.8081429 9.71185714,20.259 9.99557143,20.6785714 C10.2762857,21.0942857 10.599,21.4842857 10.9538571,21.8412857 C11.3095714,22.1961429 11.7004286,22.5175714 12.1165714,22.7995714 C12.537,23.0832857 12.9861429,23.3271429 13.452,23.5238571 C13.9268571,23.7252857 14.424,23.8787143 14.9288571,23.9811429 C15.4465714,24.0882857 15.9788571,24.1422857 16.512,24.1422857 C17.0442857,24.1422857 17.5765714,24.0882857 18.0942857,23.9811429 C18.5987143,23.8787143 19.0958571,23.7252857 19.5711429,23.5238571 C20.037,23.3271429 20.4861429,23.0832857 20.9057143,22.7995714 C21.3222857,22.5175714 21.7131429,22.1961429 22.0692857,21.8412857 C22.4241429,21.4842857 22.7472857,21.0942857 23.0275714,20.6785714 C23.3112857,20.259 23.556,19.8081429 23.7518571,19.3422857 C23.9524286,18.8682857 24.108,18.3711429 24.2112857,17.8667143 C24.3167143,17.349 24.3702857,16.8167143 24.3702857,16.2827143 C24.3702857,15.7504286 24.3167143,15.2181429 24.2112857,14.7017143 C24.108,14.1972857 23.9524286,13.6988571 23.7518571,13.224 L23.7518571,13.224 L23.7518571,13.224 Z M16.512,9.57214286 C18.2104286,9.57214286 19.7622857,10.206 20.9442857,11.2474286 C20.9275714,11.2722857 19.9722857,12.7277143 17.4381429,13.677 C16.2908571,11.5688571 15.0304286,9.89442857 14.9297143,9.76157143 C15.4371429,9.63857143 15.9668571,9.57214286 16.512,9.57214286 L16.512,9.57214286 L16.512,9.57214286 Z M14.904,9.76714286 C14.904,9.768 14.9027143,9.76885714 14.9027143,9.76885714 C14.9027143,9.76885714 14.8945714,9.771 14.8825714,9.77271429 C14.8898571,9.771 14.8962857,9.76971429 14.904,9.76714286 L14.904,9.76714286 L14.904,9.76714286 Z M13.6478571,10.2141429 C13.7374286,10.3337143 14.9785714,12.0162857 16.1404286,14.0807143 C12.9175714,14.9374286 10.1202857,14.9031429 9.94371429,14.9005714 C10.3791429,12.8211429 11.7754286,11.0978571 13.6478571,10.2141429 L13.6478571,10.2141429 L13.6478571,10.2141429 Z M11.5195714,20.7681429 C10.4502857,19.5788571 9.79971429,18.0072857 9.79971429,16.2827143 C9.79971429,16.2115714 9.80314286,16.1412857 9.80528571,16.071 C9.92442857,16.074 13.2402857,16.149 16.6958571,15.1148571 C16.8882857,15.4907143 17.0721429,15.8742857 17.2401429,16.2561429 C17.1514286,16.2801429 17.0635714,16.3067143 16.9757143,16.3362857 C13.3538571,17.5062857 11.5165714,20.7647143 11.5165714,20.7647143 C11.5165714,20.7647143 11.5195714,20.7672857 11.5195714,20.7681429 L11.5195714,20.7681429 L11.5195714,20.7681429 Z M16.512,22.9954286 C14.9267143,22.9954286 13.4708571,22.4442857 12.3218571,21.525 C12.2978571,21.5061429 12.2695714,21.4842857 12.2357143,21.4568571 C12.2695714,21.4842857 12.2978571,21.5061429 12.3218571,21.525 C12.3608571,21.5554286 12.3861429,21.5738571 12.3861429,21.5738571 C12.3861429,21.5738571 13.6727143,18.7684286 17.6532857,17.3815714 C17.6682857,17.376 17.6837143,17.3721429 17.6987143,17.3678571 C18.6428571,19.821 19.0324286,21.8764286 19.1318571,22.4631429 C18.327,22.8051429 17.4407143,22.9954286 16.512,22.9954286 L16.512,22.9954286 L16.512,22.9954286 Z M20.2624286,21.8494286 C20.1938571,21.4448571 19.836,19.4747143 18.9552857,17.0562857 C21.1225714,16.7095714 22.9997143,17.304 23.1385714,17.349 C22.8398571,19.2197143 21.7688571,20.832 20.2624286,21.8494286 L20.2624286,21.8494286 L20.2624286,21.8494286 Z M18.5468571,15.9964286 C18.4988571,15.8815714 18.4517143,15.7662857 18.402,15.6505714 C18.2622857,15.3218571 18.1118571,14.9965714 17.9554286,14.6768571 C20.6061429,13.5947143 21.6818571,12.0394286 21.6947143,12.021 C22.6354286,13.164 23.2058571,14.6241429 23.2217143,16.2162857 C23.1244286,16.1948571 20.853,15.7062857 18.5468571,15.9964286 L18.5468571,15.9964286 L18.5468571,15.9964286 Z" id="Shape" fill="#FFFFFF"></path>
                                        </g>
                                    </g>
                                </g>
                            </g>
                        </g>
                    </g>
                </g>
            </g>
        </g>
    </g>
</svg>