<?xml version="1.0" encoding="UTF-8" standalone="no"?>
<svg width="33px" height="33px" viewBox="0 0 33 33" version="1.1" xmlns="http://www.w3.org/2000/svg" xmlns:xlink="http://www.w3.org/1999/xlink">
    <!-- Generator: Sketch 39.1 (31720) - http://www.bohemiancoding.com/sketch -->
    <title>icon-twitter</title>
    <desc>Created with Sketch.</desc>
    <defs>
        <circle id="path-1" cx="16.5" cy="16.5" r="16.5"></circle>
        <mask id="mask-2" maskContentUnits="userSpaceOnUse" maskUnits="objectBoundingBox" x="0" y="0" width="33" height="33" fill="white">
            <use xlink:href="#path-1"></use>
        </mask>
    </defs>
    <g id="Symbols" stroke="none" stroke-width="1" fill="none" fill-rule="evenodd">
        <g id="social-white-outline" transform="translate(-43.000000, 0.000000)">
            <g id="icon-twitter" transform="translate(43.000000, 0.000000)">
                <use id="Oval-Copy-4" stroke="#FFFFFF" mask="url(#mask-2)" stroke-width="4" xlink:href="#path-1"></use>
                <g id="twitter" transform="translate(7.000000, 9.000000)" fill="#FFFFFF">
                    <path d="M19.3718114,1.95454545 C18.8376914,2.75 18.1919643,3.42776 17.43463,3.98782473 C17.4426021,4.10146109 17.4465879,4.27191564 17.4465879,4.49918836 C17.4465879,5.55438327 17.2951214,6.60754836 16.9921871,7.65868509 C16.6892536,8.70982109 16.2288743,9.718344 15.6110493,10.6842531 C14.9932236,11.6501622 14.2578129,12.504464 13.404815,13.2471593 C12.5518179,13.9898538 11.5234371,14.5823862 10.319675,15.0247564 C9.11591214,15.4671265 7.82844357,15.688312 6.45727071,15.688312 C4.296875,15.688312 2.31983429,15.0998378 0.526147857,13.9228895 C0.805165714,13.9553571 1.11607143,13.9715913 1.458865,13.9715913 C3.25255071,13.9715913 4.850925,13.4115258 6.25398571,12.2913964 C5.41693214,12.2751622 4.66757,12.0133927 4.00589929,11.506088 C3.34422857,10.9987825 2.88982786,10.3514611 2.64269786,9.56412364 C2.90577143,9.60470764 3.14891571,9.625 3.37213,9.625 C3.71492357,9.625 4.05373071,9.58035709 4.38855214,9.49107127 C3.495695,9.30438327 2.75629786,8.85186691 2.17036,8.13352291 C1.58442286,7.41517891 1.29145429,6.58116873 1.29145429,5.63149382 L1.29145429,5.582792 C1.83354571,5.89123345 2.41549714,6.05762982 3.03730857,6.08198036 C2.51116071,5.72483782 2.09263429,5.25811709 1.78172857,4.68181818 C1.47082286,4.10551927 1.31537,3.48051927 1.31537,2.80681818 C1.31537,2.09253236 1.49075286,1.43100655 1.84151786,0.82224 C2.80612214,2.031656 3.97999071,2.99959418 5.36312214,3.72605527 C6.74625286,4.45251636 8.22704071,4.85633091 9.805485,4.93749964 C9.74170929,4.62905818 9.70982143,4.32873382 9.70982143,4.03652582 C9.70982143,2.948864 10.0864957,2.02150982 10.8398436,1.254464 C11.5931921,0.487418909 12.5039857,0.103896 13.5722257,0.103896 C14.6882971,0.103896 15.6289857,0.517857455 16.3942921,1.34577891 C17.2632336,1.17532436 18.0803571,0.858766545 18.8456636,0.396104 C18.5507014,1.32954545 17.9846936,2.05194836 17.14764,2.563312 C17.8890307,2.48214255 18.6304207,2.27922109 19.3718114,1.95454545 L19.3718114,1.95454545 Z" id="Shape"></path>
                </g>
            </g>
        </g>
    </g>
</svg>