<?xml version="1.0" encoding="UTF-8" standalone="no"?>
<svg width="33px" height="33px" viewBox="0 0 33 33" version="1.1" xmlns="http://www.w3.org/2000/svg" xmlns:xlink="http://www.w3.org/1999/xlink" xmlns:sketch="http://www.bohemiancoding.com/sketch/ns">
    <!-- Generator: Sketch 3.5.2 (25235) - http://www.bohemiancoding.com/sketch -->
    <title>icon-instagram-color</title>
    <desc>Created with Sketch.</desc>
    <defs></defs>
    <g id="Home-Page" stroke="none" stroke-width="1" fill="none" fill-rule="evenodd" sketch:type="MSPage">
        <g id="tlg-homepage-design-r2" sketch:type="MSArtboardGroup" transform="translate(-541.000000, -3545.000000)">
            <g id="Footer" sketch:type="MSLayerGroup" transform="translate(159.000000, 3277.000000)">
                <g id="instagram" transform="translate(382.000000, 39.000000)" sketch:type="MSShapeGroup">
                    <g id="icon-instagram-color" transform="translate(0.000000, 229.000000)">
                        <g id="Instagram-circle-color">
                            <g id="Page-1">
                                <g id="SOCIAL-ICONS-SKETCH">
                                    <g id="FULL-COLOR">
                                        <g id="Instagram">
                                            <path d="M32.7822857,16.3264286 C32.7822857,25.3127143 25.4978571,32.5975714 16.5115714,32.5975714 C7.52528571,32.5975714 0.240428571,25.3127143 0.240428571,16.3264286 C0.240428571,7.34014286 7.52528571,0.0552857143 16.5115714,0.0552857143 C25.4978571,0.0552857143 32.7822857,7.34014286 32.7822857,16.3264286" id="Instagram-Circle" fill="#2A5B83"></path>
                                            <path d="M22.9097143,8.42785714 L10.9324286,8.42785714 C9.90085714,8.42785714 9.06471429,9.26185714 9.06471429,10.2912857 L9.06471429,22.2771429 C9.06471429,23.3061429 9.90085714,24.1405714 10.9324286,24.1405714 L22.9097143,24.1405714 C23.9412857,24.1405714 24.7774286,23.3061429 24.7774286,22.2771429 L24.7774286,10.2912857 C24.7774286,9.26185714 23.9412857,8.42785714 22.9097143,8.42785714 L22.9097143,8.42785714 L22.9097143,8.42785714 Z M20.3584286,10.8827143 C20.3584286,10.6118571 20.5782857,10.3915714 20.8491429,10.3915714 L22.3221429,10.3915714 C22.5934286,10.3915714 22.8132857,10.6118571 22.8132857,10.8827143 L22.8132857,12.3557143 C22.8132857,12.627 22.5934286,12.8468571 22.3221429,12.8468571 L20.8491429,12.8468571 C20.5782857,12.8468571 20.3584286,12.627 20.3584286,12.3557143 L20.3584286,10.8827143 L20.3584286,10.8827143 L20.3584286,10.8827143 Z M16.9392857,13.2878571 C18.6081429,13.2878571 19.9611429,14.6378571 19.9611429,16.3024286 C19.9611429,17.9674286 18.6081429,19.317 16.9392857,19.317 C15.2708571,19.317 13.9178571,17.9674286 13.9178571,16.3024286 C13.9178571,14.6378571 15.2708571,13.2878571 16.9392857,13.2878571 L16.9392857,13.2878571 L16.9392857,13.2878571 Z M23.3044286,22.1764286 C23.3044286,22.4472857 23.0845714,22.6675714 22.8132857,22.6675714 L11.0288571,22.6675714 C10.7575714,22.6675714 10.5377143,22.4472857 10.5377143,22.1764286 L10.5377143,14.811 L12.5018571,14.811 C12.246,15.1791429 12.1594286,15.8661429 12.1594286,16.3024286 C12.1594286,18.9317143 14.304,21.0711429 16.9392857,21.0711429 C19.575,21.0711429 21.7195714,18.9317143 21.7195714,16.3024286 C21.7195714,15.8661429 21.6574286,15.1894286 21.3402857,14.811 L23.3044286,14.811 L23.3044286,22.1764286 L23.3044286,22.1764286 L23.3044286,22.1764286 Z" id="Shape" fill="#FFFFFF"></path>
                                        </g>
                                    </g>
                                </g>
                            </g>
                        </g>
                    </g>
                </g>
            </g>
        </g>
    </g>
</svg>