<?xml version="1.0" encoding="UTF-8" standalone="no"?>
<svg width="33px" height="33px" viewBox="0 0 33 33" version="1.1" xmlns="http://www.w3.org/2000/svg" xmlns:xlink="http://www.w3.org/1999/xlink">
    <!-- Generator: Sketch 39.1 (31720) - http://www.bohemiancoding.com/sketch -->
    <title>icon-rss</title>
    <desc>Created with Sketch.</desc>
    <defs>
        <circle id="path-1" cx="16.5" cy="16.5" r="16.5"></circle>
        <mask id="mask-2" maskContentUnits="userSpaceOnUse" maskUnits="objectBoundingBox" x="0" y="0" width="33" height="33" fill="white">
            <use xlink:href="#path-1"></use>
        </mask>
    </defs>
    <g id="Symbols" stroke="none" stroke-width="1" fill="none" fill-rule="evenodd">
        <g id="social-white-outline" transform="translate(-217.000000, 0.000000)">
            <g id="icon-rss" transform="translate(217.000000, 0.000000)">
                <use id="Oval-Copy-2" stroke="#FFFFFF" mask="url(#mask-2)" stroke-width="4" xlink:href="#path-1"></use>
                <g id="rss" transform="translate(8.000000, 7.000000)" fill="#FFFFFF">
                    <path d="M4.82142825,16.1228574 C4.82142825,16.8014287 4.58705325,17.378214 4.11830325,17.853214 C3.64955325,18.328214 3.08035725,18.565714 2.4107145,18.565714 C1.74107175,18.565714 1.171875,18.328214 0.703125,17.853214 C0.234375,17.378214 0,16.8014287 0,16.1228574 C0,15.444286 0.234375,14.8675 0.703125,14.3925 C1.171875,13.9175 1.74107175,13.68 2.4107145,13.68 C3.08035725,13.68 3.64955325,13.9175 4.11830325,14.3925 C4.58705325,14.8675 4.82142825,15.444286 4.82142825,16.1228574 L4.82142825,16.1228574 Z M11.25,17.6878129 C11.2667408,17.9253129 11.1955912,18.1288842 11.0365515,18.2985268 C10.8858818,18.4766518 10.689174,18.565714 10.4464283,18.565714 L8.75139525,18.565714 C8.54213175,18.565714 8.3621655,18.495737 8.21149575,18.3557814 C8.060826,18.2158259 7.97712075,18.0398213 7.96037925,17.8277676 C7.776228,15.8853574 7.004046,14.2249778 5.643834,12.8466296 C4.283622,11.4682814 2.6450895,10.6858037 0.7282365,10.4991963 C0.518973,10.4822324 0.34528425,10.397411 0.207171,10.2447324 C0.069057,10.0920537 0,9.90968712 0,9.6976342 L0,7.98 C0,7.73401764 0.087891,7.53468712 0.2636715,7.3820092 C0.40597125,7.23781288 0.5859375,7.16571396 0.80357175,7.16571396 L0.8663505,7.16571396 C2.205636,7.27598236 3.4863285,7.61738804 4.7084265,8.18993328 C5.9305245,8.76247776 7.01450925,9.53223236 7.96037925,10.4991963 C8.91462075,11.4576787 9.674247,12.5561158 10.239258,13.7945092 C10.804269,15.0329018 11.1411832,16.3306695 11.25,17.6878129 L11.25,17.6878129 Z M17.6785717,17.7132592 C17.6953125,17.9422768 17.619978,18.1416074 17.4525667,18.31125 C17.301897,18.4808926 17.109375,18.565714 16.875,18.565714 L15.0795203,18.565714 C14.861886,18.565714 14.6756415,18.4914954 14.5207868,18.3430583 C14.365932,18.1946204 14.2843192,18.014375 14.2759485,17.8023213 C14.1755025,15.978661 13.7527905,14.2461833 13.0078125,12.604888 C12.2628345,10.9635936 11.2939455,9.53859356 10.101144,8.32988804 C8.9083425,7.12118328 7.5020925,6.139375 5.882394,5.38446396 C4.2626955,4.62955368 2.5530135,4.19696396 0.753348,4.08669632 C0.5440845,4.07821396 0.36621075,3.99551304 0.21972675,3.83859356 C0.073242,3.68167408 0,3.49718712 0,3.2851342 L0,1.46571396 C0,1.22821396 0.08370525,1.033125 0.25111575,0.88044632 C0.4017855,0.72776764 0.5859375,0.65142868 0.80357175,0.65142868 L0.841239,0.65142868 C3.03431925,0.76169632 5.133231,1.270625 7.13797425,2.17821396 C9.1427175,3.08580368 10.923549,4.33267868 12.4804688,5.91883896 C14.0457592,7.49651764 15.276228,9.30109356 16.171875,11.3325667 C17.067522,13.3640399 17.5697542,15.4909371 17.6785717,17.7132592 L17.6785717,17.7132592 Z" id="Shape"></path>
                </g>
            </g>
        </g>
    </g>
</svg>