<?xml version="1.0" encoding="UTF-8" standalone="no"?>
<svg width="16px" height="15px" viewBox="0 0 16 15" version="1.1" xmlns="http://www.w3.org/2000/svg" xmlns:xlink="http://www.w3.org/1999/xlink" xmlns:sketch="http://www.bohemiancoding.com/sketch/ns">
    <!-- Generator: Sketch 3.5.1 (25234) - http://www.bohemiancoding.com/sketch -->
    <title>icon-comment</title>
    <desc>Created with Sketch.</desc>
    <defs></defs>
    <g id="Home-Page" stroke="none" stroke-width="1" fill="none" fill-rule="evenodd" sketch:type="MSPage">
        <g id="tlg-homepage-design-r2" sketch:type="MSArtboardGroup" transform="translate(-255.000000, -810.000000)" fill="#CCCCCC">
            <g id="Content" sketch:type="MSLayerGroup" transform="translate(236.000000, 327.000000)">
                <g id="Post" sketch:type="MSShapeGroup">
                    <g id="post-footer" transform="translate(19.000000, 479.000000)">
                        <g id="comments">
                            <path d="M0,10.1213795 C0,12.8800275 1.49,15.2258852 4.03,15.9809895 C4.01,16.0716021 4,16.1521465 4,16.2427591 L4,18.3973236 C4,19.1222238 4.51,19.1725641 5.03,18.6590931 L8,16.0816701 L9.82,16.0816701 C13.23,16.0816701 16,13.3431582 16,9.96029059 C16,6.57742296 13.23,4 9.82,4 L6.18,4 C2.77,4 0,6.73851189 0,10.1213795 L0,10.1213795 Z M4,8.02722337 L12,8.02722337 L12,9.03402922 L4,9.03402922 L4,8.02722337 L4,8.02722337 Z M4,10.0408351 L12,10.0408351 L12,11.0476409 L4,11.0476409 L4,10.0408351 L4,10.0408351 Z M4,12.0544467 L9,12.0544467 L9,13.0612526 L4,13.0612526 L4,12.0544467 L4,12.0544467 Z" id="icon-comment"></path>
                        </g>
                    </g>
                </g>
            </g>
        </g>
    </g>
</svg>