<?xml version="1.0" encoding="UTF-8" standalone="no"?>
<svg width="16px" height="16px" viewBox="0 0 16 16" version="1.1" xmlns="http://www.w3.org/2000/svg" xmlns:xlink="http://www.w3.org/1999/xlink" xmlns:sketch="http://www.bohemiancoding.com/sketch/ns">
    <!-- Generator: Sketch 3.5.1 (25234) - http://www.bohemiancoding.com/sketch -->
    <title>icon-tag</title>
    <desc>Created with Sketch.</desc>
    <defs></defs>
    <g id="Home-Page" stroke="none" stroke-width="1" fill="none" fill-rule="evenodd" sketch:type="MSPage">
        <g id="tlg-homepage-design-r2" sketch:type="MSArtboardGroup" transform="translate(-512.000000, -810.000000)" fill="#CCCCCC">
            <g id="Content" sketch:type="MSLayerGroup" transform="translate(236.000000, 327.000000)">
                <g id="Post" sketch:type="MSShapeGroup">
                    <g id="post-footer" transform="translate(19.000000, 479.000000)">
                        <g id="icon-tag" transform="translate(257.000000, 4.000000)">
                            <path d="M15.5566452,7.19122581 L7.25384946,15.4943656 C6.76266667,15.9853763 5.96576344,15.9848602 5.47526882,15.4943656 L0.532301075,10.5508817 C0.0414623656,10.0602151 0.0414623656,9.26417204 0.532301075,8.77298925 L8.83544086,0.470193548 C9.11225806,0.193376344 9.4855914,0.0782795699 9.84722581,0.113548387 L9.82313978,0.0889462366 L14.1433118,1.04911828 L14.1426237,1.04946237 C14.3255054,1.07819355 14.7657634,1.22047312 14.9431398,1.85806452 L15.8315699,5.82795699 C16.0165161,6.28232258 15.9248172,6.82288172 15.5566452,7.19122581 L15.5566452,7.19122581 Z M13.4802581,2.54589247 C12.968086,2.03423656 12.1393548,2.03423656 11.6285591,2.54589247 C11.1163871,3.05772043 11.1163871,3.88645161 11.6273548,4.39793548 C12.1393548,4.90993548 12.968086,4.90993548 13.4802581,4.39793548 C13.9922581,3.88645161 13.9922581,3.05754839 13.4802581,2.54589247 L13.4802581,2.54589247 Z" id="Shape"></path>
                        </g>
                    </g>
                </g>
            </g>
        </g>
    </g>
</svg>