<?xml version="1.0" encoding="UTF-8" standalone="no"?>
<svg width="33px" height="33px" viewBox="0 0 33 33" version="1.1" xmlns="http://www.w3.org/2000/svg" xmlns:xlink="http://www.w3.org/1999/xlink">
    <!-- Generator: Sketch 39.1 (31720) - http://www.bohemiancoding.com/sketch -->
    <title>icon-pinterest</title>
    <desc>Created with Sketch.</desc>
    <defs>
        <circle id="path-1" cx="16.5" cy="16.5" r="16.5"></circle>
        <mask id="mask-2" maskContentUnits="userSpaceOnUse" maskUnits="objectBoundingBox" x="0" y="0" width="33" height="33" fill="white">
            <use xlink:href="#path-1"></use>
        </mask>
    </defs>
    <g id="Symbols" stroke="none" stroke-width="1" fill="none" fill-rule="evenodd">
        <g id="social-white-outline" transform="translate(-86.000000, 0.000000)">
            <g id="icon-pinterest" transform="translate(86.000000, 0.000000)">
                <use id="Oval-Copy-3" stroke="#FFFFFF" mask="url(#mask-2)" stroke-width="4" xlink:href="#path-1"></use>
                <g id="pinterest-p" transform="translate(9.000000, 6.000000)" fill="#FFFFFF">
                    <path d="M0,7.54768314 C0,6.67483841 0.152191273,5.85250521 0.456574545,5.08068424 C0.760957818,4.30886328 1.18100655,3.636045 1.71672073,3.06223086 C2.25243491,2.488416 2.86931782,1.99137931 3.56737018,1.57112079 C4.26542182,1.15086228 5.01623345,0.835668207 5.81980509,0.625538586 C6.62337673,0.41540969 7.44318182,0.310344517 8.27922109,0.310344517 C9.561688,0.310344517 10.7548698,0.579067759 11.8587665,1.11651424 C12.9626625,1.65396 13.8595782,2.43588341 14.5495127,3.46228448 C15.239448,4.48868555 15.5844153,5.64843734 15.5844153,6.94154131 C15.5844153,7.71740297 15.5073055,8.47710114 15.3530844,9.22063583 C15.198864,9.96417052 14.9553571,10.6794182 14.6225651,11.3663796 C14.2897731,12.0533403 13.8839287,12.6574625 13.4050327,13.1787448 C12.9261367,13.7000271 12.3376625,14.1162449 11.6396102,14.4273976 C10.9415585,14.7385509 10.1745127,14.8941269 9.33847418,14.8941269 C8.78652582,14.8941269 8.23863636,14.7648169 7.69480509,14.5061961 C7.15097382,14.2475753 6.76136364,13.8919721 6.52597382,13.4393859 C6.44480509,13.75458 6.33116873,14.2091866 6.18506473,14.8032056 C6.03896073,15.3972253 5.94358764,15.7811155 5.89894473,15.954876 C5.85430182,16.1286365 5.771104,16.4155443 5.64935055,16.8155979 C5.52759709,17.2156523 5.42207782,17.5025593 5.332792,17.6763199 C5.24350618,17.8500811 5.11363636,18.1026401 4.94318182,18.4339977 C4.77272727,18.7653552 4.58603927,19.078529 4.38311709,19.3735181 C4.18019491,19.6685073 3.92857164,20.0180494 3.62824655,20.4221444 L3.457792,20.4827584 L3.34821455,20.3615305 C3.22646109,19.0926721 3.16558473,18.3329739 3.16558473,18.0824352 C3.16558473,17.3389006 3.25284073,16.5044453 3.42735418,15.579068 C3.60186691,14.6536907 3.87175345,13.4919178 4.23701309,12.0937501 C4.60227273,10.6955817 4.813312,9.87526955 4.87013018,9.63281224 C4.61038982,9.10748928 4.48051927,8.42456928 4.48051927,7.58405152 C4.48051927,6.91325431 4.69155855,6.28286617 5.11363636,5.69288783 C5.53571418,5.10290948 6.07142836,4.80792031 6.72077891,4.80792031 C7.21590909,4.80792031 7.60146109,4.97157838 7.87743491,5.29889524 C8.15340945,5.6262121 8.29139636,6.04040959 8.29139636,6.54148697 C8.29139636,7.07489203 8.11282473,7.84671372 7.75568145,8.85695059 C7.39853891,9.86718745 7.21996727,10.6228449 7.21996727,11.1239223 C7.21996727,11.6330818 7.40259709,12.0553607 7.76785745,12.3907596 C8.13311709,12.7261586 8.57548727,12.8938581 9.09496727,12.8938581 C9.54139636,12.8938581 9.95535709,12.7928343 10.3368509,12.5907868 C10.718344,12.3887393 11.0369316,12.113955 11.2926138,11.7664332 C11.5482953,11.4189115 11.775568,11.0350213 11.974432,10.6147628 C12.1732953,10.1945043 12.3275164,9.74797986 12.4370938,9.27518876 C12.546672,8.80239766 12.6278407,8.35385214 12.6806007,7.92955293 C12.7333607,7.505253 12.7597404,7.10317903 12.7597404,6.72332959 C12.7597404,5.3251619 12.3153411,4.23612579 11.4265425,3.45622272 C10.5377433,2.67632038 9.37905818,2.28636848 7.95048727,2.28636848 C6.32711055,2.28636848 4.97159127,2.8096711 3.88392873,3.85627707 C2.79626618,4.90288231 2.25243491,6.23033431 2.25243491,7.83863162 C2.25243491,8.19423476 2.30316582,8.53771583 2.40462691,8.86907338 C2.506088,9.20043093 2.61566545,9.46309241 2.73336073,9.65705855 C2.85105527,9.85102397 2.96063345,10.0348869 3.06209382,10.2086474 C3.16355491,10.3824087 3.21428582,10.505657 3.21428582,10.5783944 C3.21428582,10.8046876 3.15340945,11.0996767 3.031656,11.463362 C2.90990255,11.8270472 2.75974036,12.0088898 2.58116873,12.0088898 C2.56493527,12.0088898 2.49594182,11.996767 2.37418836,11.9725214 C1.96022691,11.8512928 1.59293818,11.6249997 1.27232145,11.2936421 C0.951704727,10.9622846 0.704139636,10.5804148 0.529626909,10.1480335 C0.355113455,9.71565217 0.223214545,9.27922945 0.133928727,8.83876603 C0.0446429091,8.39830262 0,7.96794166 0,7.54768314 L0,7.54768314 Z" id="Shape"></path>
                </g>
            </g>
        </g>
    </g>
</svg>