<?xml version="1.0" encoding="UTF-8" standalone="no"?>
<svg width="33px" height="33px" viewBox="0 0 33 33" version="1.1" xmlns="http://www.w3.org/2000/svg" xmlns:xlink="http://www.w3.org/1999/xlink">
    <!-- Generator: Sketch 39.1 (31720) - http://www.bohemiancoding.com/sketch -->
    <title>icon-instagram</title>
    <desc>Created with Sketch.</desc>
    <defs>
        <circle id="path-1" cx="16.5" cy="16.5" r="16.5"></circle>
        <mask id="mask-2" maskContentUnits="userSpaceOnUse" maskUnits="objectBoundingBox" x="0" y="0" width="33" height="33" fill="white">
            <use xlink:href="#path-1"></use>
        </mask>
    </defs>
    <g id="Symbols" stroke="none" stroke-width="1" fill="none" fill-rule="evenodd">
        <g id="social-white-outline" transform="translate(-129.000000, 0.000000)">
            <g id="icon-instagram" transform="translate(129.000000, 0.000000)">
                <g id="instagram" transform="translate(7.000000, 6.000000)" fill="#FFFFFF">
                    <path d="M13.1868131,10.5555559 C13.1868131,9.63541678 12.8648692,8.84982622 12.2209823,8.198785 C11.5770946,7.547743 10.8001377,7.222222 9.89011,7.222222 C8.98008231,7.222222 8.20312462,7.547743 7.55923769,8.198785 C6.91535,8.84982622 6.59340692,9.63541678 6.59340692,10.5555559 C6.59340692,11.4756942 6.91535,12.2612848 7.55923769,12.912326 C8.20312462,13.563368 8.98008231,13.888889 9.89011,13.888889 C10.8001377,13.888889 11.5770946,13.563368 12.2209823,12.912326 C12.8648692,12.2612848 13.1868131,11.4756942 13.1868131,10.5555559 L13.1868131,10.5555559 Z M14.9639423,10.5555559 C14.9639423,11.9791669 14.4702954,13.1901039 13.4830015,14.1883684 C12.4957077,15.1866322 11.2980769,15.6857641 9.89011,15.6857641 C8.48214308,15.6857641 7.28451231,15.1866322 6.29721846,14.1883684 C5.30992462,13.1901039 4.81627769,11.9791669 4.81627769,10.5555559 C4.81627769,9.13194411 5.30992462,7.92100711 6.29721846,6.92274333 C7.28451231,5.92447956 8.48214308,5.42534689 9.89011,5.42534689 C11.2980769,5.42534689 12.4957077,5.92447956 13.4830015,6.92274333 C14.4702954,7.92100711 14.9639423,9.13194411 14.9639423,10.5555559 L14.9639423,10.5555559 Z M16.3547392,5.21701367 C16.3547392,5.54687467 16.2388392,5.82899333 16.00704,6.06336811 C15.77524,6.29774289 15.4962223,6.41493067 15.1699862,6.41493067 C14.84375,6.41493067 14.5647323,6.29774289 14.3329323,6.06336811 C14.1011331,5.82899333 13.9852338,5.54687467 13.9852338,5.21701367 C13.9852338,4.88715267 14.1011331,4.60503478 14.3329323,4.37066 C14.5647323,4.13628444 14.84375,4.01909744 15.1699862,4.01909744 C15.4962223,4.01909744 15.77524,4.13628444 16.00704,4.37066 C16.2388392,4.60503478 16.3547392,4.88715267 16.3547392,5.21701367 L16.3547392,5.21701367 Z M9.89011,2.35243089 C9.83001385,2.35243089 9.50163154,2.35026011 8.90496231,2.34592011 C8.30829308,2.34158011 7.85542615,2.34158011 7.54636,2.34592011 C7.23729385,2.35026011 6.82306,2.36328089 6.30365692,2.38498244 C5.78425462,2.406684 5.34211846,2.45008711 4.97724923,2.515191 C4.61238,2.58029489 4.30546,2.66059033 4.05649077,2.75607656 C3.62723231,2.92968744 3.24948462,3.18142378 2.92324846,3.51128478 C2.59701231,3.84114578 2.34804231,4.22309067 2.17633923,4.65711789 C2.08190231,4.90885422 2.00249,5.21918367 1.93810077,5.58810778 C1.87371231,5.95703111 1.83078615,6.40407989 1.80932385,6.92925333 C1.78786077,7.45442678 1.77498308,7.873264 1.77069,8.18576422 C1.76639769,8.49826367 1.76639769,8.95616322 1.77069,9.55946211 C1.77498308,10.1627602 1.77712923,10.494792 1.77712923,10.5555559 C1.77712923,10.6163198 1.77498308,10.9483508 1.77069,11.5516497 C1.76639769,12.1549478 1.76639769,12.6128473 1.77069,12.9253476 C1.77498308,13.237847 1.78786077,13.6566842 1.80932385,14.1818577 C1.83078615,14.7070311 1.87371231,15.1540799 1.93810077,15.5230032 C2.00249,15.8919273 2.08190231,16.2022568 2.17633923,16.4539931 C2.34804231,16.8880211 2.59701231,17.2699652 2.92324846,17.5998262 C3.24948462,17.9296872 3.62723231,18.1814236 4.05649077,18.3550344 C4.30546,18.4505207 4.61238,18.5308161 4.97724923,18.59592 C5.34211846,18.6610247 5.78425462,18.704427 6.30365692,18.7261286 C6.82306,18.7478301 7.23729385,18.7608509 7.54636,18.7651909 C7.85542615,18.7695309 8.30829308,18.7695309 8.90496231,18.7651909 C9.50163154,18.7608509 9.83001385,18.7586809 9.89011,18.7586809 C9.95020615,18.7586809 10.2785885,18.7608509 10.8752577,18.7651909 C11.4719262,18.7695309 11.9247938,18.7695309 12.23386,18.7651909 C12.5429262,18.7608509 12.95716,18.7478301 13.4765623,18.7261286 C13.9959646,18.704427 14.4381008,18.6610247 14.8029708,18.59592 C15.16784,18.5308161 15.47476,18.4505207 15.7237292,18.3550344 C16.1529877,18.1814236 16.5307346,17.9296872 16.8569708,17.5998262 C17.1832077,17.2699652 17.4321769,16.8880211 17.6038808,16.4539931 C17.6983169,16.2022568 17.77773,15.8919273 17.8421185,15.5230032 C17.9065077,15.1540799 17.9494331,14.7070311 17.9708962,14.1818577 C17.9923592,13.6566842 18.0052369,13.237847 18.0095292,12.9253476 C18.0138223,12.6128473 18.0138223,12.1549478 18.0095292,11.5516497 C18.0052369,10.9483508 18.0030908,10.6163198 18.0030908,10.5555559 C18.0030908,10.494792 18.0052369,10.1627602 18.0095292,9.55946211 C18.0138223,8.95616322 18.0138223,8.49826367 18.0095292,8.18576422 C18.0052369,7.873264 17.9923592,7.45442678 17.9708962,6.92925333 C17.9494331,6.40407989 17.9065077,5.95703111 17.8421185,5.58810778 C17.77773,5.21918367 17.6983169,4.90885422 17.6038808,4.65711789 C17.4321769,4.22309067 17.1832077,3.84114578 16.8569708,3.51128478 C16.5307346,3.18142378 16.1529877,2.92968744 15.7237292,2.75607656 C15.47476,2.66059033 15.16784,2.58029489 14.8029708,2.515191 C14.4381008,2.45008711 13.9959646,2.406684 13.4765623,2.38498244 C12.95716,2.36328089 12.5429262,2.35026011 12.23386,2.34592011 C11.9247938,2.34158011 11.4719262,2.34158011 10.8752577,2.34592011 C10.2785885,2.35026011 9.95020615,2.35243089 9.89011,2.35243089 L9.89011,2.35243089 Z M19.78022,10.5555559 C19.78022,12.5434027 19.7587569,13.9192706 19.7158308,14.6831596 C19.6299792,16.4887154 19.0976992,17.8862849 18.1189908,18.8758679 C17.1402815,19.8654517 15.75807,20.4036459 13.9723554,20.4904513 C13.2168615,20.5338544 11.8561123,20.5555552 9.89011,20.5555552 C7.92410692,20.5555552 6.56335846,20.5338544 5.80786385,20.4904513 C4.02215,20.4036459 2.63993846,19.8654517 1.66122923,18.8758679 C0.682520769,17.8862849 0.15024,16.4887154 0.0643884615,14.6831596 C0.0214630769,13.9192706 0,12.5434027 0,10.5555559 C0,8.56770833 0.0214630769,7.19184044 0.0643884615,6.42795144 C0.15024,4.62239556 0.682520769,3.22482611 1.66122923,2.23524311 C2.63993846,1.24565933 4.02215,0.707465111 5.80786385,0.620659667 C6.56335846,0.577257333 7.92410692,0.555555778 9.89011,0.555555778 C11.8561123,0.555555778 13.2168615,0.577257333 13.9723554,0.620659667 C15.75807,0.707465111 17.1402815,1.24565933 18.1189908,2.23524311 C19.0976992,3.22482611 19.6299792,4.62239556 19.7158308,6.42795144 C19.7587569,7.19184044 19.78022,8.56770833 19.78022,10.5555559 L19.78022,10.5555559 Z" id="Shape"></path>
                </g>
                <use id="Oval" stroke="#FFFFFF" mask="url(#mask-2)" stroke-width="4" xlink:href="#path-1"></use>
            </g>
        </g>
    </g>
</svg>