<?xml version="1.0" encoding="UTF-8" standalone="no"?>
<svg width="107px" height="86px" viewBox="0 0 107 86" version="1.1" xmlns="http://www.w3.org/2000/svg" xmlns:xlink="http://www.w3.org/1999/xlink" xmlns:sketch="http://www.bohemiancoding.com/sketch/ns">
    <!-- Generator: Sketch 3.5.1 (25234) - http://www.bohemiancoding.com/sketch -->
    <title>icon-envelope</title>
    <desc>Created with Sketch.</desc>
    <defs></defs>
    <g id="Home-Page" stroke="none" stroke-width="1" fill="none" fill-rule="evenodd" sketch:type="MSPage">
        <g id="tlg-homepage-design-r2" sketch:type="MSArtboardGroup" transform="translate(-999.000000, -833.000000)" fill="#FFFFFF">
            <g id="Sidebar" sketch:type="MSLayerGroup" transform="translate(902.000000, 327.000000)">
                <g id="widget-subscribe" transform="translate(0.000000, 486.000000)" sketch:type="MSShapeGroup">
                    <g id="icon-envelope" transform="translate(150.000000, 63.000000) rotate(-15.000000) translate(-150.000000, -63.000000) translate(103.000000, 31.000000)">
                        <g id="Group">
                            <path d="M47.086,37.251 L54.865,31.024 L93.582,0.735 L93.582,0.31 L47.086,0.31 L0.59,0.31 L0.59,0.735 L39.307,31.024 L47.086,37.251 Z" id="Shape"></path>
                            <path d="M35.934,31.645 L0.359,1.552 L0.359,63.094 L35.934,31.647 L35.934,31.645 Z" id="Shape"></path>
                            <path d="M55.604,33.756 L47.086,40.569 L38.568,33.756 L38.148,33.418 L0.536,63.689 L47.086,63.689 L93.637,63.689 L56.023,33.418 L55.604,33.756 Z" id="Shape"></path>
                            <path d="M58.238,31.645 L58.238,31.647 L93.812,63.094 L93.812,1.552 L58.238,31.645 Z" id="Shape"></path>
                        </g>
                    </g>
                </g>
            </g>
        </g>
    </g>
</svg>