<?xml version="1.0" encoding="UTF-8" standalone="no"?>
<svg width="33px" height="33px" viewBox="0 0 33 33" version="1.1" xmlns="http://www.w3.org/2000/svg" xmlns:xlink="http://www.w3.org/1999/xlink">
    <!-- Generator: Sketch 39.1 (31720) - http://www.bohemiancoding.com/sketch -->
    <title>icon-youtube</title>
    <desc>Created with Sketch.</desc>
    <defs>
        <circle id="path-1" cx="16.5" cy="16.5" r="16.5"></circle>
        <mask id="mask-2" maskContentUnits="userSpaceOnUse" maskUnits="objectBoundingBox" x="0" y="0" width="33" height="33" fill="white">
            <use xlink:href="#path-1"></use>
        </mask>
    </defs>
    <g id="Symbols" stroke="none" stroke-width="1" fill="none" fill-rule="evenodd">
        <g id="social-white-outline" transform="translate(-215.000000, 0.000000)">
            <g id="icon-youtube" transform="translate(215.000000, 0.000000)">
                <use id="Oval-Copy" stroke="#FFFFFF" mask="url(#mask-2)" stroke-width="4" xlink:href="#path-1"></use>
                <g id="youtube" transform="translate(8.000000, 7.000000)" fill="#FFFFFF">
                    <path d="M10.6286485,13.6203916 L10.6286485,15.8993374 C10.6286485,16.3817684 10.4863493,16.6229839 10.2017517,16.6229839 C10.0339113,16.6229839 9.86972008,16.5437787 9.70917731,16.3853684 L9.70917731,13.1343606 C9.86972008,12.9759503 10.0339113,12.8967452 10.2017517,12.8967452 C10.4863493,12.8967452 10.6286485,13.1379606 10.6286485,13.6203916 L10.6286485,13.6203916 Z M14.3284252,13.6311923 L14.3284252,14.1280245 L13.3432778,14.1280245 L13.3432778,13.6311923 C13.3432778,13.1415613 13.507469,12.8967452 13.8358515,12.8967452 C14.1642339,12.8967452 14.3284252,13.1415613 14.3284252,13.6311923 L14.3284252,13.6311923 Z M3.75450754,11.2766419 L4.92573823,11.2766419 L4.92573823,10.2613768 L1.51055985,10.2613768 L1.51055985,11.2766419 L2.65989846,11.2766419 L2.65989846,17.4222348 L3.75450754,17.4222348 L3.75450754,11.2766419 Z M6.90697969,17.4222348 L7.88118104,17.4222348 L7.88118104,12.0866935 L6.90697969,12.0866935 L6.90697969,16.1693548 C6.68805827,16.4717742 6.48008223,16.6229839 6.28305288,16.6229839 C6.15169977,16.6229839 6.0750775,16.5473794 6.05318477,16.396169 C6.04588785,16.3745677 6.04223873,16.24856 6.04223873,16.0181452 L6.04223873,12.0866935 L5.06803738,12.0866935 L5.06803738,16.3097639 C5.06803738,16.6625865 5.09722704,16.9254032 5.15560635,17.0982142 C5.24317465,17.3646316 5.45479915,17.49784 5.79047919,17.49784 C6.14075373,17.49784 6.512921,17.2782258 6.90697969,16.8389974 L6.90697969,17.4222348 Z M11.6028505,15.8237329 L11.6028505,13.6959968 C11.6028505,13.1703626 11.5700117,12.81394 11.5043355,12.6267284 C11.3802799,12.2235026 11.1212228,12.0218897 10.7271635,12.0218897 C10.3622938,12.0218897 10.0229653,12.2163019 9.70917731,12.6051265 L9.70917731,10.2613768 L8.73497596,10.2613768 L8.73497596,17.4222348 L9.70917731,17.4222348 L9.70917731,16.9038019 C10.0375598,17.2998271 10.3768889,17.49784 10.7271635,17.49784 C11.1212228,17.49784 11.3802799,17.2998271 11.5043355,16.9038019 C11.5700117,16.7093897 11.6028505,16.3493665 11.6028505,15.8237329 L11.6028505,15.8237329 Z M15.3026272,15.7157258 L15.3026272,15.5753168 L14.3065331,15.5753168 C14.3065331,15.9425406 14.2992362,16.1621542 14.284641,16.2341587 C14.2335593,16.4933755 14.0876117,16.6229839 13.8467975,16.6229839 C13.5111175,16.6229839 13.3432778,16.3745677 13.3432778,15.8777361 L13.3432778,14.9380761 L15.3026272,14.9380761 L15.3026272,13.8256052 C15.3026272,13.2567684 15.2041122,12.8391419 15.0070828,12.5727245 C14.7224845,12.2055013 14.3357227,12.0218897 13.8467975,12.0218897 C13.3505753,12.0218897 12.9601651,12.2055013 12.6755668,12.5727245 C12.4712399,12.8391419 12.3690764,13.2567684 12.3690764,13.8256052 L12.3690764,15.6941245 C12.3690764,16.2629606 12.4748883,16.6805877 12.6865128,16.9470045 C12.9711112,17.3142284 13.3651698,17.49784 13.8686902,17.49784 C14.394102,17.49784 14.7881614,17.3070277 15.050867,16.9254032 C15.1822201,16.730991 15.258843,16.5365781 15.2807351,16.3421658 C15.2953296,16.2773619 15.3026272,16.0685484 15.3026272,15.7157258 L15.3026272,15.7157258 Z M8.647407,5.85469484 L8.647407,3.58654968 C8.647407,3.08971742 8.49051335,2.84130194 8.17672538,2.84130194 C7.86293808,2.84130194 7.70604377,3.08971742 7.70604377,3.58654968 L7.70604377,5.85469484 C7.70604377,6.3587271 7.86293808,6.61074323 8.17672538,6.61074323 C8.49051335,6.61074323 8.647407,6.3587271 8.647407,5.85469484 L8.647407,5.85469484 Z M16.5176427,13.9660135 C16.5176427,15.6509219 16.4227768,16.9110026 16.2330443,17.7462555 C16.1308809,18.1710832 15.9192564,18.5275058 15.5981715,18.8155239 C15.277086,19.1035426 14.9049193,19.2691535 14.481671,19.3123561 C13.1389508,19.4635658 11.1139252,19.5391703 8.4065935,19.5391703 C5.69926177,19.5391703 3.67423615,19.4635658 2.331516,19.3123561 C1.90826765,19.2691535 1.53427615,19.1035426 1.20954215,18.8155239 C0.884808808,18.5275058 0.675008538,18.1710832 0.580142654,17.7462555 C0.390410231,16.9398039 0.295544346,15.6797232 0.295544346,13.9660135 C0.295544346,12.2811058 0.390410231,11.0210252 0.580142654,10.1857716 C0.682306115,9.76094452 0.893930615,9.40452194 1.2150155,9.11650323 C1.53610038,8.82848516 1.91191612,8.65927419 2.34246204,8.60887097 C3.67788462,8.46486194 5.69926177,8.39285742 8.4065935,8.39285742 C11.1139252,8.39285742 13.1389508,8.46486194 14.481671,8.60887097 C14.9049193,8.65927419 15.2789108,8.82848516 15.6036442,9.11650323 C15.9283782,9.40452194 16.1381785,9.76094452 16.2330443,10.1857716 C16.4227768,10.9922232 16.5176427,12.2523039 16.5176427,13.9660135 L16.5176427,13.9660135 Z M5.59344985,0.184331613 L6.70995035,0.184331613 L5.38547381,4.49380774 L5.38547381,7.42079484 L4.29086538,7.42079484 L4.29086538,4.49380774 C4.18870192,3.96097355 3.96613138,3.19772452 3.62315442,2.20406129 C3.35315062,1.46241355 3.11598558,0.789170323 2.91165865,0.184331613 L4.07194396,0.184331613 L4.84911596,3.02491355 L5.59344985,0.184331613 Z M9.64350108,3.78096194 L9.64350108,5.67108323 C9.64350108,6.25432 9.54133762,6.67914774 9.33701069,6.94556452 C9.06700754,7.31278774 8.68024577,7.4964 8.17672538,7.4964 C7.68780015,7.4964 7.3046875,7.31278774 7.02738677,6.94556452 C6.82305985,6.6719471 6.72089638,6.24712 6.72089638,5.67108323 L6.72089638,3.78096194 C6.72089638,3.20492516 6.82305985,2.78369806 7.02738677,2.51728129 C7.3046875,2.15005742 7.68780015,1.96644581 8.17672538,1.96644581 C8.68024577,1.96644581 9.06700754,2.15005742 9.33701069,2.51728129 C9.54133762,2.78369806 9.64350108,3.20492516 9.64350108,3.78096194 L9.64350108,3.78096194 Z M13.3104397,2.03125032 L13.3104397,7.42079484 L12.3143456,7.42079484 L12.3143456,6.82675677 C11.9275845,7.27318581 11.5517687,7.4964 11.186899,7.4964 C10.851219,7.4964 10.635946,7.36319097 10.5410802,7.09677419 C10.4827008,6.92396323 10.4535112,6.65394581 10.4535112,6.28672258 L10.4535112,2.03125032 L11.4496053,2.03125032 L11.4496053,5.99510387 C11.4496053,6.23271871 11.4532537,6.3587271 11.4605513,6.37312774 C11.4824434,6.53153806 11.5590657,6.61074323 11.6904188,6.61074323 C11.8874488,6.61074323 12.0954242,6.4559329 12.3143456,6.14631355 L12.3143456,2.03125032 L13.3104397,2.03125032 Z" id="Shape"></path>
                </g>
            </g>
        </g>
    </g>
</svg>