<?xml version="1.0" encoding="utf-8"?>
<!-- Generator: Adobe Illustrator 19.2.1, SVG Export Plug-In . SVG Version: 6.00 Build 0)  -->
<svg version="1.1" id="Layer_1" xmlns="http://www.w3.org/2000/svg" xmlns:xlink="http://www.w3.org/1999/xlink" x="0px" y="0px"
	 viewBox="0 0 33 33" style="enable-background:new 0 0 33 33;" xml:space="preserve">
<style type="text/css">
	.st0{fill:#FFFFFF;}
</style>
<g>
	<g>
		<path class="st0" d="M16.5,2c8,0,14.5,6.5,14.5,14.4c0,8-6.5,14.5-14.5,14.5C8.5,30.9,2,24.4,2,16.5C2,8.5,8.5,2,16.5,2 M16.5,0
			C7.4,0,0,7.4,0,16.5c0,9.1,7.4,16.5,16.5,16.5c9.1,0,16.5-7.4,16.5-16.5C32.9,7.4,25.5,0,16.5,0L16.5,0z"/>
	</g>
	<path class="st0" d="M22.3,6.9H10.6c-2,0-3.7,1.7-3.7,3.7v3.9v7.9c0,2,1.7,3.7,3.7,3.7h11.8c2,0,3.7-1.7,3.7-3.7v-7.9v-3.9
		C26.1,8.5,24.4,6.9,22.3,6.9z M23.4,9.1l0.4,0v0.4v2.8l-3.2,0l0-3.3L23.4,9.1z M13.7,14.5c0.6-0.9,1.6-1.4,2.7-1.4s2.1,0.6,2.7,1.4
		c0.4,0.6,0.6,1.2,0.6,2c0,1.9-1.5,3.4-3.4,3.4c-1.9,0-3.4-1.5-3.4-3.4C13.1,15.7,13.3,15.1,13.7,14.5z M24.2,22.4
		c0,1-0.8,1.8-1.8,1.8H10.6c-1,0-1.8-0.8-1.8-1.8v-7.9h2.9c-0.2,0.6-0.4,1.3-0.4,2c0,2.9,2.4,5.2,5.3,5.2c2.9,0,5.3-2.4,5.3-5.2
		c0-0.7-0.1-1.4-0.4-2h2.9V22.4z"/>
</g>
</svg>
