<?xml version="1.0" encoding="utf-8"?>
<!-- Generator: Adobe Illustrator 19.2.1, SVG Export Plug-In . SVG Version: 6.00 Build 0)  -->
<svg version="1.1" id="Layer_1" xmlns="http://www.w3.org/2000/svg" xmlns:xlink="http://www.w3.org/1999/xlink" x="0px" y="0px"
	 viewBox="0 0 33 33" style="enable-background:new 0 0 33 33;" xml:space="preserve">
<style type="text/css">
	.st0{fill:#FFFFFF;}
</style>
<g>
	<g>
		<path class="st0" d="M16.5,2C24.5,2,31,8.5,31,16.5c0,8-6.5,14.5-14.5,14.5C8.5,31,2,24.5,2,16.5C2,8.5,8.5,2,16.5,2 M16.5,0
			C7.4,0,0,7.4,0,16.5C0,25.6,7.4,33,16.5,33C25.6,33,33,25.6,33,16.5C33,7.4,25.6,0,16.5,0L16.5,0z"/>
	</g>
	<path class="st0" d="M12.2,26c0,0.1,0.2,0.2,0.3,0.1c0.1-0.1,1.5-1.9,2-3.6c0.1-0.5,0.8-3,0.8-3c0.4,0.7,1.5,1.4,2.7,1.4
		c3.6,0,6.1-3.2,6.1-7.6c0-3.3-2.8-6.3-7.1-6.3c-5.3,0-8,3.8-8,6.9c0,1.9,0.7,3.6,2.3,4.2c0.3,0.1,0.5,0,0.6-0.3
		c0.1-0.2,0.2-0.7,0.2-0.9c0.1-0.3,0-0.4-0.2-0.6c-0.5-0.5-0.7-1.2-0.7-2.2c0-2.8,2.1-5.3,5.5-5.3c3,0,4.7,1.8,4.7,4.2
		c0,3.2-1.4,5.9-3.6,5.9c-1.2,0-2.1-1-1.8-2.1c0.3-1.4,1-2.9,1-3.9c0-0.9-0.5-1.7-1.5-1.7c-1.2,0-2.2,1.2-2.2,2.9
		c0,1,0.4,1.7,0.4,1.7s-1.2,5.1-1.4,6C11.8,23.6,12.1,25.8,12.2,26z"/>
</g>
</svg>
