<?xml version="1.0" encoding="utf-8"?>
<!-- Generator: Adobe Illustrator 19.2.1, SVG Export Plug-In . SVG Version: 6.00 Build 0)  -->
<svg version="1.1" id="Layer_1" xmlns="http://www.w3.org/2000/svg" xmlns:xlink="http://www.w3.org/1999/xlink" x="0px" y="0px"
	 viewBox="0 0 33 33" style="enable-background:new 0 0 33 33;" xml:space="preserve">
<style type="text/css">
	.st0{fill:#FFFFFF;}
</style>
<g>
	<g>
		<path class="st0" d="M16.5,2c7.9,0,14.3,6.4,14.3,14.3c0,7.9-6.4,14.3-14.3,14.3c-7.9,0-14.3-6.4-14.3-14.3C2.2,8.4,8.6,2,16.5,2
			 M16.5,0C7.5,0,0.2,7.3,0.2,16.3c0,9,7.3,16.3,16.3,16.3c9,0,16.3-7.3,16.3-16.3C32.8,7.3,25.5,0,16.5,0L16.5,0z"/>
	</g>
	<g>
		<ellipse class="st0" cx="10.2" cy="23.3" rx="2.5" ry="2.5"/>
		<path class="st0" d="M16.6,25.9h3.7c0-6.9-5.6-12.6-12.6-12.6v3.7c2.4,0,4.6,0.9,6.3,2.6C15.6,21.2,16.6,23.5,16.6,25.9z"/>
		<path class="st0" d="M23,25.9h3.7c0-10.5-8.5-19.1-19-19.1v3.7C16.1,10.5,23,17.4,23,25.9z"/>
	</g>
</g>
</svg>
