<?xml version="1.0" encoding="UTF-8" standalone="no"?>
<svg width="318px" height="156px" viewBox="0 0 318 156" version="1.1" xmlns="http://www.w3.org/2000/svg" xmlns:xlink="http://www.w3.org/1999/xlink" xmlns:sketch="http://www.bohemiancoding.com/sketch/ns">
    <!-- Generator: Sketch 3.4.4 (17249) - http://www.bohemiancoding.com/sketch -->
    <title>Main Logo</title>
    <desc>Created with Sketch.</desc>
    <defs></defs>
    <g id="Single-Post" stroke="none" stroke-width="1" fill="none" fill-rule="evenodd" sketch:type="MSPage">
        <g id="tlg-single-post-design-dr1" sketch:type="MSArtboardGroup" transform="translate(-172.000000, -26.000000)">
            <g id="Header" sketch:type="MSLayerGroup" transform="translate(159.000000, 26.000000)">
                <g id="Main-Logo" transform="translate(13.000000, 0.000000)" sketch:type="MSShapeGroup">
                    <path d="M159.365145,124.316214 C158.314081,130.858 135.903401,140.7055 111.462698,140.7055 C69.653093,140.7055 47.7332791,121.7125 28.3343547,114.537429 C25.0425,121.501714 19.5801105,124.175071 15.0985291,124.175071 C6.48387209,124.175071 6.76397093,110.457286 19.7908779,110.457286 C21.2607035,110.457286 22.7323779,110.5975 24.2031279,110.878857 C24.6930698,107.714286 24.9731686,103.844 24.9731686,99.0609286 C24.9731686,97.8649286 24.9731686,89.7046429 25.0425,88.5792143 C17.830186,88.7203571 9.70639535,86.5382143 0.881895349,80.7002857 C-0.658186047,79.716 0.741383721,78.0269286 2.00321512,78.871 C10.476436,84.4990714 18.3192035,86.6087857 25.1136802,86.5382143 C26.4439186,63.6767857 36.0384593,58.0487143 45.3519767,58.0487143 C61.8103256,58.0487143 52.6354709,83.2334286 31.2758547,87.8762857 L31.2758547,99.0609286 C31.2758547,104.406714 30.505814,108.698571 29.3151628,112.1445 C49.9047384,118.968571 72.9449477,137.188071 112.232738,137.188071 C133.66261,137.188071 156.422721,130.576643 157.403529,123.823143 C157.894395,120.445929 159.925343,120.728214 159.365145,124.316214 L159.365145,124.316214 Z M23.7825174,113.200286 C22.2415116,112.848357 20.7014302,112.708143 19.1604244,112.708143 C9.56680814,112.708143 9.63613953,121.993857 15.8694942,121.993857 C19.5107791,121.993857 22.310843,119.743 23.7825174,113.200286 L23.7825174,113.200286 Z M31.3461105,85.9058571 C50.5351919,81.7560714 58.6580581,60.2995714 45.0025465,60.2995714 C37.0885988,60.2995714 32.1854826,66.0678571 31.3461105,85.9058571 L31.3461105,85.9058571 Z" id="Fill-1" fill="#FFFFFF"></path>
                    <path d="M58.5193953,117.139286 L58.4482151,117.139286 C47.7342035,117.139286 44.8620349,107.853571 44.8620349,99.5530714 C44.8620349,89.6340714 51.4457442,82.1776429 58.6589826,82.1776429 L58.728314,82.1776429 C69.4441744,82.1776429 72.3856744,91.4633571 72.3856744,99.7638571 C72.3856744,109.682857 65.8028895,117.139286 58.5193953,117.139286 L58.5193953,117.139286 Z M58.9390814,84.3588571 C53.0560814,84.3588571 51.1656453,88.8605714 51.1656453,99.5530714 C51.1656453,110.317071 52.7057267,115.100143 58.2392965,115.100143 L58.3095523,115.100143 C64.1213721,115.100143 66.082064,110.5975 66.082064,99.9755714 C66.082064,89.2125 64.4717267,84.3588571 58.9390814,84.3588571 L58.9390814,84.3588571 Z" id="Fill-2" fill="#FFFFFF"></path>
                    <path d="M108.522122,93.2220714 C105.300523,96.3885 102.289692,97.7943571 99.6282907,98.0060714 C97.6675988,108.979929 92.5546395,117.139286 87.5821919,117.139286 C80.999407,117.139286 76.6574128,109.331857 76.587157,96.3179286 L76.587157,86.8205 C76.587157,83.0922857 76.7979244,82.8109286 78.7586163,81.3335714 C82.6097442,78.3788571 82.821436,81.8266429 82.821436,88.1567143 L82.821436,95.8945 C82.821436,106.236 83.4509651,114.677643 88.7035116,114.677643 C91.7152674,114.677643 95.1457849,107.221214 96.6165349,97.7943571 C86.8814826,95.2621429 82.68,77.3230714 93.0455058,77.3230714 C96.6165349,77.3230714 100.398331,82.108 100.398331,88.9302143 C100.398331,91.3937143 100.188488,93.7847857 99.9083895,96.1062143 C102.078924,95.8248571 104.530483,94.5582857 107.191884,91.8849286 C108.451866,90.6192857 109.853285,91.8152857 108.522122,93.2220714 L108.522122,93.2220714 Z M96.8263779,95.8945 C97.1074012,93.6445714 97.2469884,91.2516429 97.2469884,88.9302143 C97.2469884,84.2873571 95.8455698,79.3640714 93.0455058,79.3640714 C86.1114419,79.3640714 89.1231977,93.7151429 96.8263779,95.8945 L96.8263779,95.8945 Z" id="Fill-3" fill="#FFFFFF"></path>
                    <path d="M129.321541,105.391929 C129.321541,110.878857 126.519628,117.139286 119.30639,117.139286 C112.094076,117.139286 105.930977,113.059143 105.930977,99.7638571 C105.930977,88.6497857 109.853285,82.1776429 120.007099,82.1776429 C127.850791,82.1776429 134.643419,91.0417857 112.37325,104.689 C113.003703,111.7935 115.174238,114.889357 120.007099,114.889357 C123.649308,114.889357 125.749587,112.918929 125.749587,108.628 C125.749587,107.291786 124.629192,106.165429 122.6685,105.603643 C120.287198,104.899786 120.707808,99.9755714 124.489605,99.9755714 C127.921047,99.9755714 129.321541,103.0705 129.321541,105.391929 L129.321541,105.391929 Z M112.233663,99.7638571 C112.233663,100.889286 112.233663,101.8745 112.302994,102.858786 C125.049802,94.77 123.507872,84.1471429 118.885779,84.1471429 C113.914256,84.1471429 112.233663,89.0017143 112.233663,99.7638571 L112.233663,99.7638571 Z" id="Fill-4" fill="#FFFFFF"></path>
                    <path d="M138.215372,82.1776429 L138.215372,99.7638571 C138.215372,111.512143 138.845826,114.889357 142.977052,114.889357 C145.708709,114.889357 148.720465,112.708143 150.190291,102.507786 C150.681157,99.1315 152.781436,99.4128571 152.151907,103.000857 C150.260547,114.677643 145.988808,117.139286 142.346599,117.139286 C136.814878,117.139286 131.912686,114.1855 131.912686,99.7638571 L131.912686,82.1776429 C131.912686,79.7865714 132.051349,77.3945714 132.192785,75.1437143 C127.431105,75.4250714 122.177634,75.0016429 116.505401,73.4546429 C114.755477,73.0321429 115.524593,70.9920714 116.996267,71.4145714 C122.527988,72.8919286 127.710279,73.3135 132.332372,72.9615714 C134.293064,52.1392857 142.767209,37.9302857 152.571593,37.9302857 C172.461384,37.9302857 164.47718,68.3187143 138.425215,74.2281429 C138.285628,76.8318571 138.215372,79.4346429 138.215372,82.1776429 L138.215372,82.1776429 Z M138.495471,72.0478571 C162.166134,66.4197857 169.869314,40.1811429 152.221238,40.1811429 C143.887605,40.1811429 139.614942,53.7577857 138.495471,72.0478571 L138.495471,72.0478571 Z" id="Fill-5" fill="#FFFFFF"></path>
                    <path d="M178.202948,155.689857 C171.830006,155.689857 168.677738,149.569643 167.838366,128.324857 C157.193686,125.3005 141.64589,124.807429 119.866587,129.872786 C118.394913,130.154143 117.275442,128.255214 119.095622,127.832714 C140.805593,122.837929 156.70282,123.119286 167.697855,126.144571 C167.558267,122.0635 167.488936,117.491214 167.488936,112.357143 L167.488936,109.823071 C165.597576,114.537429 162.655151,117.139286 158.944535,117.139286 C152.850767,117.139286 148.158419,114.465929 148.089087,100.3275 L148.089087,86.8205 C148.089087,83.0922857 148.299855,82.8109286 150.260547,81.3335714 C154.18193,78.3788571 154.322442,81.8266429 154.322442,88.1567143 L154.322442,99.905 C154.391773,111.371 155.302326,115.100143 159.994674,115.100143 C163.916983,115.100143 166.858483,108.134929 167.488936,97.8649286 C167.488936,94.2769286 167.558267,88.0870714 167.558267,86.8205 C167.558267,83.0922857 167.76811,82.8109286 169.728802,81.3335714 C173.650186,78.3788571 173.790698,81.8266429 173.790698,88.1567143 C173.790698,89.986 173.721366,96.9502857 173.721366,99.905 C173.721366,100.046143 173.790698,112.357143 173.790698,112.357143 L173.790698,128.184643 C193.890331,136.836143 191.649541,155.689857 178.202948,155.689857 L178.202948,155.689857 Z M173.790698,130.506071 C173.790698,147.740357 174.350895,153.439 179.323343,153.439 C189.406901,153.439 190.668733,138.243857 173.790698,130.506071 L173.790698,130.506071 Z" id="Fill-6" fill="#FFFFFF"></path>
                    <path d="M192.769012,73.3840714 C191.089343,87.0322143 164.966198,94.5582857 156.563233,80.5591429 C156.003035,79.5748571 155.512169,78.5905714 155.232994,77.5347857 C139.055669,84.2177143 127.989453,71.0626429 138.494547,57.0635 C149.000564,42.9947143 166.577459,45.5975 179.813285,54.4607143 C216.930541,27.5887857 277.577023,40.7438571 265.741692,57.5565714 C261.331291,63.8179286 254.537738,60.6505714 256.008488,58.1898571 C257.409907,55.6567143 261.891488,57.9781429 263.291983,56.5722857 C274.847215,44.9651429 218.05186,29.4180714 181.63439,55.7272857 C183.595081,57.2046429 185.485517,58.8231429 187.167035,60.5112857 C190.738988,64.0983571 192.418657,67.5452143 192.769012,70.7822143 C194.17043,71.6253571 195.640256,72.4703571 197.111006,73.4546429 C203.414616,60.9337857 214.969849,55.7272857 223.163895,55.6567143 C256.358843,55.4459286 231.147174,97.8649286 200.543372,78.3788571 C199.563488,82.6697857 199.002366,87.8057143 199.002366,93.8553571 L199.002366,94.8405714 C199.071698,110.317071 202.014122,115.100143 207.826866,115.100143 C212.658802,115.100143 214.68975,111.160214 215.320203,107.432 C215.389535,106.587929 215.389535,105.4625 215.389535,104.126286 C215.389535,100.397143 215.669634,100.046143 217.560994,98.5678571 C221.482378,95.6140714 221.693145,99.1315 221.693145,105.391929 C221.693145,110.526929 221.552634,108.979929 221.552634,109.049571 C221.342791,130.294357 211.81943,136.485143 202.083453,136.485143 C191.299186,136.485143 189.688849,122.204643 196.271634,119.108786 C201.313413,116.718643 203.694715,122.486 199.142878,123.612357 C192.700605,125.159357 194.17043,134.515643 203.203849,134.515643 C209.997401,134.515643 214.619494,128.959071 215.249023,112.496429 C213.429767,115.169786 210.69811,117.139286 206.705547,117.139286 C199.563488,117.139286 192.839267,113.411071 192.700605,95.2621429 L192.700605,94.0670714 C192.700605,86.7508571 194.029919,80.5591429 196.201378,75.4956429 C195.011651,74.7212143 193.890331,74.0173571 192.769012,73.3840714 L192.769012,73.3840714 Z M154.741203,75.283 C153.972087,68.4607857 158.733767,61.425 170.569099,62.5504286 C172.950401,59.9485714 175.540622,57.6271429 178.272279,55.5870714 C166.997145,48.1297143 150.81982,44.1201429 140.666006,57.6967857 C131.84243,69.4450714 140.736262,81.0522143 154.741203,75.283 L154.741203,75.283 Z M157.053174,74.1585 C160.834971,72.189 164.827535,68.9529286 168.957837,64.2395 C169.029017,64.2395 169.029017,64.2395 169.029017,64.1689286 C160.204517,63.7464286 156.982919,69.1637143 157.053174,74.1585 L157.053174,74.1585 Z M190.388634,71.9772857 C182.685453,67.5452143 176.591686,65.2934286 171.830006,64.5208571 C171.480576,64.8022143 171.200477,65.1541429 170.918529,65.5060714 C166.298285,70.7822143 161.675267,74.3692857 157.333273,76.5495714 C157.614297,77.6044286 157.964651,78.5905714 158.453669,79.3640714 C166.717047,93.0112857 189.828436,84.6392857 190.388634,71.9772857 L190.388634,71.9772857 Z M180.164564,56.8536429 C177.782337,58.682 175.472215,60.7220714 173.300756,62.9023571 C177.993105,63.7464286 183.595081,65.7874286 190.177866,69.3745 C189.688849,66.8422857 188.288355,64.1689286 185.626953,61.4965 C184.086872,59.9485714 182.194587,58.3300714 180.164564,56.8536429 L180.164564,56.8536429 Z M201.10357,76.128 C228.836128,94.8405714 253.276831,57.6967857 222.813541,57.9075714 C214.550163,57.9781429 205.235721,61.7063571 201.10357,76.128 L201.10357,76.128 Z" id="Fill-7" fill="#FFFFFF"></path>
                    <path d="M249.425703,105.391929 C249.425703,110.878857 246.623791,117.139286 239.410552,117.139286 C232.198238,117.139286 226.034215,113.059143 226.034215,99.7638571 C226.034215,88.6497857 229.957448,82.1776429 240.111262,82.1776429 C247.954029,82.1776429 254.748506,91.0417857 232.477413,104.689 C233.107866,111.7935 235.278401,114.889357 240.111262,114.889357 C243.753471,114.889357 245.85375,112.918929 245.85375,108.628 C245.85375,107.291786 244.733355,106.165429 242.772663,105.603643 C240.39136,104.899786 240.811971,99.9755714 244.592843,99.9755714 C248.025209,99.9755714 249.425703,103.0705 249.425703,105.391929 L249.425703,105.391929 Z M232.33875,99.7638571 C232.33875,100.889286 232.33875,101.8745 232.407157,102.858786 C245.153041,94.77 243.612959,84.1471429 238.990866,84.1471429 C234.017494,84.1471429 232.33875,89.0017143 232.33875,99.7638571 L232.33875,99.7638571 Z" id="Fill-8" fill="#FFFFFF"></path>
                    <path d="M275.266901,105.391929 C275.266901,110.878857 272.465913,117.139286 265.252674,117.139286 C258.038512,117.139286 251.875413,113.059143 251.875413,99.7638571 C251.875413,88.6497857 255.797721,82.1776429 265.953384,82.1776429 C273.796151,82.1776429 280.588779,91.0417857 258.319535,104.689 C258.949988,111.7935 261.120523,114.889357 265.953384,114.889357 C269.595593,114.889357 271.694948,112.918929 271.694948,108.628 C271.694948,107.291786 270.575477,106.165429 268.614785,105.603643 C266.233483,104.899786 266.652244,99.9755714 270.434965,99.9755714 C273.865483,99.9755714 275.266901,103.0705 275.266901,105.391929 L275.266901,105.391929 Z M258.179023,99.7638571 C258.179023,100.889286 258.179023,101.8745 258.249279,102.858786 C270.994238,94.77 269.454157,84.1471429 264.832064,84.1471429 C259.859616,84.1471429 258.179023,89.0017143 258.179023,99.7638571 L258.179023,99.7638571 Z" id="Fill-9" fill="#FFFFFF"></path>
                    <path d="M317.565523,103.000857 C315.675087,114.677643 311.403349,117.139286 307.691808,117.139286 C302.159163,117.139286 297.328151,114.325714 297.328151,104.970357 L297.328151,104.689 C297.328151,98.0060714 297.887424,95.0513571 293.754349,95.0513571 C290.18332,95.0513571 284.301244,102.015643 284.301244,112.708143 L284.301244,112.918929 C284.091401,117.068714 281.85061,117.351 279.118953,117.139286 C276.878163,116.929429 277.927378,115.873643 277.927378,110.738643 C277.927378,105.251714 277.998558,88.2272857 277.998558,79.4346429 L277.998558,79.0827143 C272.185814,78.5905714 265.392262,77.3230714 257.478314,75.1437143 C255.72839,74.6506429 256.49843,72.6105714 257.96918,73.0321429 C265.812872,75.3535714 272.465913,76.6201429 278.06789,77.1132143 C278.628087,55.0234286 287.032901,49.6776429 292.914977,49.6776429 C309.863267,49.6776429 318.057314,79.1523571 284.301244,79.3640714 L284.301244,79.4346429 C284.301244,84.7107857 284.230988,90.5487143 284.230988,97.3022143 C287.032901,87.8762857 293.265331,81.4041429 297.53707,80.3483571 C305.309581,78.3788571 304.470209,88.0870714 298.308035,85.4842857 C292.774465,83.1628571 287.453512,91.0417857 285.490971,99.5530714 C288.083965,95.1925 291.72525,92.8701429 294.455058,92.8701429 C299.918372,92.8701429 303.560581,95.3327143 303.560581,104.689 L303.560581,104.970357 C303.560581,111.653286 304.259442,114.959929 308.391593,114.959929 C311.052994,114.959929 314.135006,112.708143 315.604831,102.507786 C316.095698,99.1315 318.12757,99.4834286 317.565523,103.000857 L317.565523,103.000857 Z M284.301244,77.3945714 C313.434297,76.9720714 306.851512,51.9294286 292.494366,51.9294286 C287.942529,51.9294286 284.580419,57.6271429 284.301244,77.3945714 L284.301244,77.3945714 Z" id="Fill-10" fill="#FFFFFF"></path>
                    <path d="M78.766936,58.5631429 C78.766936,58.5631429 78.6587791,58.9002143 78.4563314,59.5316429 C78.2538837,60.1575 77.8942849,61.1027857 77.3109767,62.2254286 C76.699936,63.3341429 75.8393023,64.6703571 74.4480523,65.9137143 C73.0725174,67.1524286 71.1312384,68.2518571 68.8312849,68.7245 C66.5378023,69.1832143 63.9706919,69.0207143 61.4886279,68.2908571 L61.0190233,68.1571429 L60.8997733,68.1209286 L60.8452326,68.1014286 L60.7389244,68.0615 L60.5235349,67.9807143 C60.2369651,67.8683571 59.9494709,67.756 59.6592035,67.6436429 C59.0721977,67.3882857 58.3899767,67.0354286 57.7872558,66.7011429 C56.5947558,65.9824286 55.4762093,65.0724286 54.5018721,64.0082857 C52.5800058,61.8233571 51.4568372,58.9902857 51.2506919,56.0968571 C51.1443837,54.6492143 51.2081686,53.1857857 51.4133895,51.7362857 L51.5955,50.6535714 C51.6195349,50.4910714 51.6713023,50.2477857 51.6740756,50.1521429 L51.7471047,49.6256429 L52.004093,47.5103571 C52.1926744,46.098 52.3036047,44.6865714 52.412686,43.2881429 C52.4820174,42.5917143 52.5513488,41.8962143 52.6197558,41.2035 L52.6271512,41.1385 C52.6225291,41.1626429 52.6410174,41.0391429 52.617907,41.184 L52.6197558,41.1505714 L52.6299244,41.0196429 C52.646564,40.8952143 52.617907,40.9583571 52.6216047,40.9277143 L52.578157,40.6185 C52.5347093,40.3492143 52.4496628,40.0205 52.3932733,39.5144286 C52.3738605,39.2516429 52.3470523,38.9461429 52.4385698,38.5069286 C52.5115988,38.0955714 52.7889244,37.5365714 53.1762558,37.1985714 C53.3740814,37.0054286 53.5515698,36.9060714 53.7475465,36.7909286 C53.8566279,36.7426429 53.605186,36.8401429 54.0110058,36.673 L54.0415116,36.6618571 L54.1015988,36.6386429 L54.2226977,36.5931429 L54.4648953,36.5012143 C54.6201977,36.4594286 54.8365116,36.4204286 55.025093,36.3953571 C55.21275,36.3721429 55.4373837,36.3498571 55.5945349,36.3563571 L56.0197674,36.3953571 C56.3211279,36.4204286 56.5429884,36.4872857 56.7814884,36.5495 C57.2473953,36.6757857 57.626407,36.8345714 57.9591977,36.9710714 C58.6460407,37.2635714 59.1008547,37.4325714 59.7766047,37.6851429 C60.4052093,37.9200714 61.027343,38.1540714 61.6457791,38.3862143 C62.8586163,38.8421429 64.0501919,39.2897143 65.2168081,39.728 C66.3972907,40.1226429 67.552814,40.508 68.6778314,40.8840714 C69.2897965,41.1227143 69.9304186,41.4012857 70.5192733,41.6705714 C71.0850174,41.9751429 71.658157,42.2332857 72.1823023,42.5759286 C73.2426105,43.2268571 74.2077035,43.9632143 75.0276628,44.7896429 C76.7027093,46.4044286 77.8277267,48.2801429 78.4692733,50.0165714 C79.1191395,51.7641429 79.290157,53.3529286 79.312343,54.6278571 C79.2873837,55.2695 79.2920058,55.835 79.2032616,56.3215714 C79.1404012,56.81 79.0932558,57.2232143 79.0026628,57.5491429 L78.7687849,58.5566429 L78.766936,58.5631429 L78.766936,58.5631429 Z M78.4128837,58.4535714 C78.4128837,58.4526429 78.4794419,58.1127857 78.6060872,57.4739286 C78.6929826,57.1582143 78.6929826,56.7533571 78.7197907,56.2844286 C78.7752558,55.8155 78.6892849,55.2750714 78.6347442,54.6798571 C78.4369186,53.4987143 77.9562209,52.0984286 77.0022209,50.7872857 C76.0620872,49.4659286 74.6911744,48.2671429 73.0734419,47.2252857 C72.2710465,46.6941429 71.368814,46.241 70.4434709,45.7785714 C69.982186,45.5455 69.4811512,45.3616429 68.9958314,45.1378571 C68.5077384,44.9632857 68.0113256,44.7859286 67.5093663,44.6067143 C66.9436221,44.4395714 66.3704826,44.2696429 65.7890233,44.0978571 C65.1585698,43.8963571 64.5216453,43.693 63.8764012,43.4868571 C62.6413779,43.017 61.3998837,42.5183571 60.210157,41.9677143 C59.6055872,41.6993571 58.9963953,41.4291429 58.3825814,41.1570714 C57.8122151,40.9147143 57.0283081,40.5423571 56.48475,40.2563571 C56.2000291,40.1124286 55.9513605,39.9935714 55.7627791,39.9267143 C55.6731105,39.8942143 55.5705,39.8487143 55.5279767,39.8505714 C55.4993198,39.845 55.4715872,39.8357143 55.4438547,39.8245714 C55.429064,39.8199286 55.4817558,39.8292143 55.4993198,39.8143571 C55.5168837,39.806 55.5603314,39.7716429 55.548314,39.7558571 L55.2996453,39.8301429 L55.1757733,39.8672857 L55.1147616,39.8858571 L55.0833314,39.8942143 L55.29225,39.8097143 C55.3412442,39.7865 55.3588081,39.7577143 55.4373837,39.6955 C55.5584826,39.5794286 55.6712616,39.3463571 55.6712616,39.2720714 C55.6768081,39.1708571 55.6583198,39.2182143 55.6564709,39.3027143 C55.6509244,39.4912143 55.6980698,39.8477857 55.7304244,40.274 C55.7433663,40.5005714 55.7535349,40.7169286 55.740593,41.0112857 C55.7322733,41.1542857 55.711936,41.3947857 55.6962209,41.4421429 L55.6731105,41.5712143 L55.6453779,41.7142143 L55.6296628,41.7782857 C55.462343,42.4672857 55.2931744,43.1572143 55.1249302,43.8499286 C54.7699535,45.2297857 54.4085058,46.6068571 53.9786512,47.9560714 L53.3713081,49.9924286 L53.2280233,50.5022143 C53.163314,50.7529286 53.1226395,50.8504286 53.0680988,51.0315 L52.765814,52.0065 C52.4422674,53.3241429 52.288814,54.6789286 52.3747849,56.0095714 C52.4773953,58.7015 53.9176395,61.1176429 55.8441279,62.5643571 C56.8369535,63.2747143 57.9028081,63.804 58.989,64.2144286 C59.5418023,64.4038571 60.0169535,64.5589286 60.5974884,64.7186429 C60.8997733,64.7966429 61.1983605,64.8737143 61.4950988,64.9498571 L61.7178837,65.0102143 L61.8833547,65.0557143 C61.948064,65.0752143 61.8260407,65.0380714 61.8473023,65.0436429 L61.873186,65.0492143 L62.2900988,65.13 C64.4939128,65.6007857 66.559064,65.8264286 68.4624419,65.78 C70.3602733,65.7270714 72.1083488,65.3268571 73.5467442,64.6044286 C74.9916105,63.8894286 76.059314,62.8503571 76.7803605,61.8902143 C77.4773721,60.8966429 77.8720988,60.0367857 78.091186,59.41 C78.2927093,58.812 78.4027151,58.4832857 78.4128837,58.4535714 L78.4128837,58.4535714 Z" id="Fill-11" fill="#FFFFFF"></path>
                    <path d="M89.9440814,62.4585 C89.9440814,62.4585 89.8701279,62.8039286 89.7277674,63.4511429 C89.5946512,64.1020714 89.4892674,65.0427143 89.5761628,66.2545 C89.7018837,67.4505 90.0836686,68.8944286 90.9535465,70.2557143 C91.8141802,71.6197857 93.105593,72.8696429 94.7039128,73.8966429 C96.3105523,74.9236429 98.1954419,75.8002143 100.326227,76.5393571 L100.724651,76.6851429 L100.748686,76.6953571 C100.770872,76.7018571 100.647,76.6693571 100.712634,76.687 L100.768099,76.7018571 L100.878105,76.7334286 L101.099041,76.7965714 C101.393006,76.8857143 101.689744,76.9739286 101.987407,77.064 C102.567017,77.2292857 103.052337,77.3416429 103.623628,77.4651429 C104.766209,77.6777857 105.95039,77.7752857 107.166,77.6815 C109.558395,77.441 112.033064,76.1177857 113.504738,73.8650714 C114.260913,72.7702857 114.826657,71.5306429 115.225081,70.2343571 L115.467279,69.2417143 C115.514424,69.0578571 115.528291,68.9538571 115.602244,68.7059286 L115.741831,68.1933571 L116.265052,66.1347143 C116.592297,64.7576429 116.989797,63.3898571 117.393767,62.023 C117.605459,61.3423571 117.816227,60.6645 118.02607,59.9875714 L118.045483,59.9244286 L118.095401,59.7879286 L118.140698,59.6644286 C118.152715,59.6161429 118.259023,59.3997857 118.325581,59.2725714 C118.464244,59.0144286 118.584419,58.8333571 118.713837,58.6467143 C118.958808,58.2985 119.182517,58.0171429 119.274959,57.8527857 C119.316558,57.7803571 119.323953,57.7292857 119.278657,57.8212143 C119.239831,57.8834286 119.216721,58.1425 119.261093,58.3031429 C119.296221,58.3987857 119.297145,58.4312857 119.327651,58.4777143 L119.461692,58.6578571 L119.439506,58.6337143 L119.396058,58.5854286 L119.309163,58.4897857 L119.134448,58.2985 C119.115959,58.305 119.134448,58.357 119.146465,58.3737143 C119.152936,58.3950714 119.203779,58.4136429 119.188988,58.4108571 C119.158483,58.4062143 119.129826,58.3997143 119.102093,58.3895 C119.06789,58.3653571 118.95511,58.3514286 118.861744,58.3319286 C118.666692,58.292 118.39214,58.2650714 118.07414,58.2418571 C117.462174,58.2028571 116.600616,58.1165 115.985878,58.0292143 C115.321221,57.9437857 114.660262,57.8592857 114.004849,57.7757143 C112.703267,57.6308571 111.383198,57.4145 110.083465,57.1777143 C109.426203,57.0198571 108.774488,56.8638571 108.131093,56.7097143 C107.545936,56.5565 106.96725,56.4042143 106.395959,56.2537857 C105.873663,56.1479286 105.357837,56.0420714 104.850331,55.939 C104.319715,55.8795714 103.79557,55.7774286 103.281593,55.7375 C102.250866,55.6539286 101.245099,55.575 100.284628,55.6149286 C98.363686,55.6678571 96.5721628,55.9845 95.0903198,56.6289286 C93.600157,57.2585 92.4677442,58.2075 91.692157,59.1175 C91.3399535,59.5994286 90.9886744,60.0172857 90.7954709,60.4481429 C90.5773081,60.8632143 90.369314,61.2105 90.2814942,61.5262143 C90.0605581,62.14 89.943157,62.4668571 89.943157,62.4668571 L89.9440814,62.4585 L89.9440814,62.4585 Z M89.5872558,62.3675 C89.5863314,62.3675 89.6972616,62.0257857 89.903407,61.3850714 C89.9930756,61.0582143 90.1650174,60.6802857 90.3619186,60.229 C90.5347849,59.7656429 90.8305988,59.2846429 91.1393547,58.7228571 C91.811407,57.6410714 92.7755756,56.3689286 94.2287616,55.2091429 C95.6708547,54.054 97.5982674,53.0297857 99.8621686,52.5144286 C100.989035,52.2312143 102.193552,52.1012143 103.436895,52.0937857 C104.059953,52.0715 104.68486,52.1467143 105.325483,52.1792143 C105.968878,52.2535 106.662192,52.3472857 107.30836,52.4605714 C108.464808,52.7205714 109.651762,52.9889286 110.867372,53.2628571 C112.091302,53.4922143 113.342041,53.7262143 114.613116,53.9639286 C115.262983,54.0855714 115.916547,54.2081429 116.575657,54.3316429 C117.283762,54.4662857 117.759837,54.5563571 118.499372,54.6622143 C118.854349,54.7188571 119.261093,54.7782857 119.724227,54.912 C119.960878,54.9816429 120.185512,55.0401429 120.456366,55.1757143 L120.84,55.3623571 C120.977738,55.4375714 121.158,55.5722143 121.30868,55.6901429 C121.456587,55.809 121.622058,55.9547857 121.733913,56.0708571 L121.893837,56.2742143 L121.974262,56.3763571 L122.014012,56.4274286 L122.034349,56.4525 C122.295959,56.8062857 122.131413,56.5917857 122.19982,56.6902143 C122.307977,56.8898571 122.409663,57.0672143 122.478994,57.3355714 C122.637994,57.8249286 122.589924,58.4489286 122.439244,58.838 C122.293186,59.2632857 122.113849,59.5112143 121.96132,59.7247857 C121.654413,60.1296429 121.411291,60.3673571 121.235651,60.5753571 L121.03875,60.8186429 C121.026733,60.8465 121.035052,60.7777857 120.985134,60.8929286 L120.926895,61.0108571 L120.912105,61.0396429 C120.964797,60.9031429 120.918576,61.0192143 120.926895,60.996 L120.899163,61.0554286 C120.6015,61.685 120.303837,62.3155 120.006174,62.9478571 C119.382192,64.2032857 118.751738,65.4689286 118.187843,66.7763571 L117.321663,68.7217143 L117.113669,69.2101429 C117.065599,69.2937143 116.986099,69.5295714 116.923238,69.6809286 L116.522965,70.7032857 C115.953523,72.0515714 115.256512,73.3376429 114.421762,74.5215714 C112.758733,76.8940714 110.343227,78.7391429 107.573669,79.6147857 C106.193512,80.0215 104.768058,80.2211429 103.375884,80.2183571 C102.688116,80.1932857 101.922698,80.1422143 101.288547,80.0558571 C100.982564,80.002 100.67843,79.95 100.375221,79.8970714 L100.149663,79.8543571 L100.037808,79.833 L99.9814186,79.8218571 L99.8593953,79.7912143 L99.3888663,79.6630714 C96.888314,79.0019286 94.6059244,77.8105714 92.8763372,76.2282857 C91.1495233,74.6320714 90.051314,72.6848571 89.5086802,70.9112857 C88.9549535,69.1237857 88.9041105,67.5340714 88.9503314,66.2675 C89.0279826,65.0027857 89.2045465,64.0064286 89.3524535,63.3657143 C89.5040581,62.7203571 89.585407,62.3758571 89.585407,62.3758571 L89.5872558,62.3675 L89.5872558,62.3675 Z" id="Fill-12" fill="#FFFFFF"></path>
                    <path d="M78.5071744,57.0115 C78.5071744,57.0115 83.8928372,57.7478571 85.2008895,58.1304286 C86.3157384,58.4554286 90.727064,60.424 90.727064,60.424" id="Stroke-13" stroke="#FFFFFF" stroke-width="4"></path>
                    <path d="M147.276523,5.21857143 C149.104099,16.8637857 149.876913,32.2483571 123.59939,32.2483571 L118.259948,32.2483571 C98.4468837,32.2483571 92.6849826,33.5186429 93.3875407,37.7538571 C94.3017907,43.4701429 88.6813256,40.365 87.9787674,36.0592143 C86.1511919,24.4149286 85.3783779,9.02942857 111.655901,9.02942857 C112.288203,9.02942857 116.151349,9.1 116.994419,9.1 C136.808407,9.1 142.569384,7.75914286 141.866826,3.52392857 C140.883244,-2.19235714 146.573965,0.913714286 147.276523,5.21857143" id="Fill-16" fill="#3CA8B2"></path>
                    <path d="M111.468244,15.8126429 C111.152093,16.2472143 111.085535,16.3307857 110.236919,16.3307857 C109.654535,16.3307857 108.855837,16.3140714 107.989657,16.2639286 C108.007221,16.3976429 108.007221,16.5647857 108.007221,16.7820714 C107.924023,19.825 107.357355,26.8477857 106.991285,26.9647857 C106.624291,27.0985 106.492099,26.546 106.492099,25.8607143 C106.492099,25.142 106.507814,18.0356429 106.507814,17.0996429 C106.507814,16.7486429 106.507814,16.4310714 106.524453,16.1636429 C104.644186,16.0299286 102.89611,15.8293571 102.812913,15.6287857 C102.69736,15.2777857 103.196547,15.1440714 103.845488,15.1097143 C104.544349,15.093 109.021308,14.9425714 109.904128,14.9267857 C111.318488,14.8757143 112.11811,14.9100714 111.468244,15.8126429" id="Fill-17" fill="#FFFFFF"></path>
                    <path d="M120.754029,16.1803571 C120.669907,19.2232857 120.103238,26.546 119.754733,26.663 C119.388663,26.78 119.255547,26.2451429 119.255547,25.5598571 L119.255547,20.8947143 C118.989314,21.2624286 118.872837,21.3469286 118.090779,21.3469286 C116.858529,21.3469286 115.427529,21.1621429 114.512355,20.9625 C114.295116,23.8039286 113.995605,26.5961429 113.779291,26.663 C113.412297,26.78 113.280105,26.2451429 113.280105,25.5598571 L113.280105,16.4979286 C113.280105,14.9927143 113.329099,14.1737143 114.261837,14.8757143 C114.711105,15.2267143 114.810942,15.2945 114.777663,16.1803571 C114.761023,17.1665 114.67875,18.5881429 114.577988,20.059 C115.277773,20.0422857 116.875169,19.942 117.757064,19.9252857 C118.422645,19.9085714 118.95511,19.8918571 119.255547,19.9921429 L119.255547,16.4979286 C119.255547,14.9927143 119.305465,14.1737143 120.237279,14.8757143 C120.686547,15.2267143 120.786384,15.2945 120.754029,16.1803571" id="Fill-18" fill="#FFFFFF"></path>
                    <path d="M130.920785,26.1615714 C130.636988,26.6295714 130.57043,26.78 129.738453,26.78 C127.441273,26.78 124.362035,26.6295714 123.413581,26.663 C123.046587,26.6797143 122.931035,26.2284286 122.931035,25.5598571 C122.931035,24.8244286 122.947674,17.4339286 122.947674,16.4979286 C122.947674,14.9927143 122.997593,14.1737143 123.929407,14.8757143 C124.045884,14.9592857 124.129081,15.0437857 124.212279,15.1097143 C125.127453,15.0772143 128.456285,14.9425714 129.288262,14.9100714 C130.703547,14.8757143 131.485605,14.8933571 130.854227,15.8126429 C130.538076,16.2472143 130.470593,16.3307857 129.621977,16.3307857 C128.190977,16.3307857 125.910436,16.1803571 124.445233,15.9797857 L124.445233,16.1803571 C124.411953,17.1665 124.328756,18.5881429 124.228919,20.059 C124.928703,20.0422857 126.526099,19.942 127.424634,19.9252857 C128.822355,19.8918571 129.621977,19.9085714 128.97211,20.8120714 C128.656884,21.2624286 128.589401,21.3469286 127.757424,21.3469286 C126.509459,21.3469286 125.094174,21.1621429 124.16236,20.9625 C124.012605,23.0183571 123.812006,25.0584286 123.629895,26.0445714 C123.779651,26.0111429 123.946047,25.9777143 124.111517,25.961 C124.811302,25.8941429 128.407291,25.493 129.288262,25.3927143 C130.703547,25.2422857 131.485605,25.2088571 130.920785,26.1615714" id="Fill-19" fill="#FFFFFF"></path>
                </g>
            </g>
        </g>
    </g>
</svg>