<?xml version="1.0" encoding="UTF-8" standalone="no"?>
<svg width="344px" height="168px" viewBox="0 0 344 168" version="1.1" xmlns="http://www.w3.org/2000/svg" xmlns:xlink="http://www.w3.org/1999/xlink">
    <!-- Generator: Sketch 39.1 (31720) - http://www.bohemiancoding.com/sketch -->
    <title>statement-logo-invoicely</title>
    <desc>Created with Sketch.</desc>
    <defs></defs>
    <g id="Style-Guide" stroke="none" stroke-width="1" fill="none" fill-rule="evenodd">
        <g id="statement-logo-invoicely">
            <g id="Page-1">
                <g id="Group-3" transform="translate(0.000000, 61.225000)" fill="#696969">
                    <path d="M33.6868,30.8477 C54.4448,26.3787 63.2318,3.2727 48.4588,3.2727 C39.8988,3.2727 34.5948,9.4847 33.6868,30.8477 M25.5048,60.2427 C23.8378,59.8637 22.1708,59.7117 20.5048,59.7117 C10.1258,59.7117 10.2018,69.7117 16.9448,69.7117 C20.8838,69.7117 23.9138,67.2877 25.5048,60.2427 M172.1718,72.2127 C171.0358,79.2577 146.7928,89.8637 120.3538,89.8637 C75.1258,89.8637 51.4138,69.4087 30.4288,61.6817 C26.8688,69.1817 20.9588,72.0607 16.1108,72.0607 C6.7918,72.0607 7.0948,57.2877 21.1868,57.2877 C22.7768,57.2877 24.3688,57.4397 25.9588,57.7427 C26.4898,54.3337 26.7918,50.1657 26.7918,45.0147 C26.7918,43.7267 26.7918,34.9397 26.8688,33.7267 C19.0658,33.8787 10.2778,31.5297 0.7318,25.2427 C-0.9342,24.1817 0.5798,22.3637 1.9448,23.2727 C11.1108,29.3327 19.5948,31.6057 26.9448,31.5297 C28.3838,6.9087 38.7628,0.8477 48.8378,0.8477 C66.6418,0.8477 56.7168,27.9697 33.6108,32.9697 L33.6108,45.0147 C33.6108,50.7727 32.7778,55.3947 31.4898,59.1057 C53.7628,66.4537 78.6868,86.0747 121.1868,86.0747 C144.3688,86.0747 168.9898,78.9547 170.0508,71.6817 C170.5818,68.0447 172.7788,68.3487 172.1718,72.2127" id="Fill-1"></path>
                </g>
                <path d="M63.5364,90.4067 C57.1724,90.4067 55.1264,95.2557 55.1264,106.7697 C55.1264,118.3617 56.7934,123.5127 62.7784,123.5127 L62.8544,123.5127 C69.1414,123.5127 71.2634,118.6647 71.2634,107.2247 C71.2634,95.6337 69.5204,90.4067 63.5364,90.4067 M63.0814,125.7097 L63.0054,125.7097 C51.4154,125.7097 48.3074,115.7097 48.3074,106.7697 C48.3074,96.0887 55.4294,88.0577 63.2324,88.0577 L63.3074,88.0577 C74.8994,88.0577 78.0814,98.0577 78.0814,106.9977 C78.0814,117.6787 70.9604,125.7097 63.0814,125.7097" id="Fill-4" fill="#696969"></path>
                <path d="M104.5208,102.8305 C104.8248,100.4065 104.9758,97.8305 104.9758,95.3305 C104.9758,90.3305 103.4598,85.0275 100.4308,85.0275 C92.9298,85.0275 96.1878,100.4825 104.5208,102.8305 M117.1728,99.9515 C113.6878,103.3615 110.4308,104.8765 107.5518,105.1035 C105.4308,116.9225 99.8998,125.7095 94.5208,125.7095 C87.3998,125.7095 82.7028,117.3015 82.6268,103.2855 L82.6268,93.0575 C82.6268,89.0435 82.8548,88.7395 84.9758,87.1485 C89.1418,83.9675 89.3708,87.6805 89.3708,94.4975 L89.3708,102.8305 C89.3708,113.9675 90.0518,123.0575 95.7338,123.0575 C98.9918,123.0575 102.7028,115.0275 104.2938,104.8765 C93.7628,102.1485 89.2178,82.8305 100.4308,82.8305 C104.2938,82.8305 108.3848,87.9825 108.3848,95.3305 C108.3848,97.9825 108.1578,100.5575 107.8548,103.0575 C110.2028,102.7555 112.8548,101.3915 115.7338,98.5125 C117.0968,97.1485 118.6128,98.4365 117.1728,99.9515" id="Fill-6" fill="#696969"></path>
                <path d="M121.1878,106.9975 C121.1878,108.2095 121.1878,109.2695 121.2628,110.3305 C135.0518,101.6185 133.3838,90.1795 128.3838,90.1795 C123.0058,90.1795 121.1878,95.4065 121.1878,106.9975 M139.6728,113.0585 C139.6728,118.9675 136.6418,125.7095 128.8388,125.7095 C121.0368,125.7095 114.3698,121.3145 114.3698,106.9975 C114.3698,95.0275 118.6128,88.0585 129.5968,88.0585 C138.0808,88.0585 145.4298,97.6035 121.3388,112.3015 C122.0208,119.9515 124.3698,123.2855 129.5968,123.2855 C133.5368,123.2855 135.8088,121.1645 135.8088,116.5435 C135.8088,115.1035 134.5968,113.8915 132.4758,113.2855 C129.8998,112.5275 130.3548,107.2255 134.4458,107.2255 C138.1578,107.2255 139.6728,110.5585 139.6728,113.0585" id="Fill-8" fill="#696969"></path>
                <path d="M149.5969,77.1488 C175.2019,71.0878 183.5359,42.8308 164.4449,42.8308 C155.4299,42.8308 150.8079,57.4518 149.5969,77.1488 M149.2939,88.0578 L149.2939,106.9978 C149.2939,119.6488 149.9759,123.2858 154.4449,123.2858 C157.3999,123.2858 160.6579,120.9368 162.2469,109.9518 C162.7789,106.3158 165.0509,106.6188 164.3699,110.4828 C162.3239,123.0578 157.7019,125.7098 153.7629,125.7098 C147.7789,125.7098 142.4759,122.5278 142.4759,106.9978 L142.4759,88.0578 C142.4759,85.4828 142.6259,82.9068 142.7789,80.4828 C137.6269,80.7858 131.9449,80.3308 125.8089,78.6648 C123.9149,78.2098 124.7469,76.0118 126.3389,76.4668 C132.3239,78.0578 137.9299,78.5118 142.9299,78.1328 C145.0509,55.7098 154.2179,40.4068 164.8239,40.4068 C186.3389,40.4068 177.7019,73.1328 149.5209,79.4978 C149.3699,82.3008 149.2939,85.1038 149.2939,88.0578" id="Fill-10" fill="#696969"></path>
                <path d="M187.7776,140.1039 C187.7776,158.6649 188.3836,164.8009 193.7626,164.8009 C204.6716,164.8009 206.0366,148.4369 187.7776,140.1039 M192.5506,167.2249 C185.6566,167.2249 182.2476,160.6339 181.3386,137.7549 C169.8236,134.4979 153.0046,133.9669 129.4446,139.4219 C127.8526,139.7249 126.6416,137.6799 128.6106,137.2249 C152.0956,131.8459 169.2936,132.1489 181.1866,135.4069 C181.0356,131.0119 180.9606,126.0879 180.9606,120.5589 L180.9606,117.8309 C178.9146,122.9069 175.7316,125.7089 171.7176,125.7089 C165.1266,125.7089 160.0496,122.8309 159.9746,107.6039 L159.9746,93.0579 C159.9746,89.0429 160.2026,88.7399 162.3236,87.1489 C166.5656,83.9669 166.7176,87.6799 166.7176,94.4979 L166.7176,107.1489 C166.7926,119.4979 167.7776,123.5129 172.8536,123.5129 C177.0966,123.5129 180.2786,116.0119 180.9606,104.9519 C180.9606,101.0879 181.0356,94.4219 181.0356,93.0579 C181.0356,89.0429 181.2626,88.7399 183.3836,87.1489 C187.6266,83.9669 187.7776,87.6799 187.7776,94.4979 C187.7776,96.4669 187.7026,103.9669 187.7026,107.1489 C187.7026,107.3009 187.7776,120.5589 187.7776,120.5589 L187.7776,137.6039 C209.5206,146.9209 207.0966,167.2249 192.5506,167.2249" id="Fill-12" fill="#696969"></path>
                <path d="M217.3235,81.5434 C247.3235,101.6944 273.7625,61.6934 240.8085,61.9214 C231.8695,61.9974 221.7945,66.0124 217.3235,81.5434 M194.6725,60.7854 C192.0955,62.7554 189.5965,64.9514 187.2475,67.3004 C192.3235,68.2094 198.3845,70.4064 205.5055,74.2704 C204.9755,71.5434 203.4605,68.6644 200.5815,65.7854 C198.9155,64.1184 196.8685,62.3764 194.6725,60.7854 M205.7325,77.0724 C197.3995,72.3004 190.8075,69.8754 185.6565,69.0434 C185.2785,69.3464 184.9755,69.7254 184.6715,70.1044 C179.6725,75.7854 174.6725,79.6484 169.9745,81.9974 C170.2785,83.1334 170.6575,84.1944 171.1865,85.0274 C180.1265,99.7254 205.1265,90.7094 205.7325,77.0724 M169.6725,79.4224 C173.7625,77.3014 178.0815,73.8154 182.5505,68.7394 C182.6265,68.7394 182.6265,68.7394 182.6265,68.6644 C173.0815,68.2094 169.5955,74.0434 169.6725,79.4224 M167.1715,80.6334 C166.3395,73.2854 171.4895,65.7094 184.2925,66.9214 C186.8685,64.1184 189.6715,61.6184 192.6265,59.4224 C180.4285,51.3914 162.9285,47.0724 151.9445,61.6934 C142.3995,74.3464 152.0205,86.8464 167.1715,80.6334 M208.3075,78.5884 C206.4905,93.2854 178.2315,101.3914 169.1415,86.3144 C168.5355,85.2554 168.0055,84.1944 167.7025,83.0584 C150.2025,90.2554 138.2315,76.0884 149.5955,61.0124 C160.9605,45.8604 179.9745,48.6644 194.2935,58.2094 C234.4445,29.2704 300.0505,43.4374 287.2475,61.5434 C282.4755,68.2854 275.1275,64.8754 276.7185,62.2254 C278.2335,59.4974 283.0815,61.9974 284.5965,60.4824 C297.0965,47.9824 235.6575,31.2394 196.2625,59.5724 C198.3845,61.1644 200.4285,62.9064 202.2475,64.7254 C206.1115,68.5884 207.9285,72.3004 208.3075,75.7854 C209.8235,76.6934 211.4145,77.6044 213.0055,78.6644 C219.8235,65.1804 232.3235,59.5724 241.1875,59.4974 C277.0965,59.2704 249.8235,104.9514 216.7185,83.9674 C215.6575,88.5884 215.0505,94.1184 215.0505,100.6344 L215.0505,101.6944 C215.1265,118.3614 218.3085,123.5134 224.5965,123.5134 C229.8235,123.5134 232.0205,119.2704 232.7025,115.2554 C232.7775,114.3464 232.7775,113.1344 232.7775,111.6944 C232.7775,107.6794 233.0815,107.3014 235.1265,105.7094 C239.3685,102.5274 239.5965,106.3154 239.5965,113.0584 C239.5965,118.5884 239.4445,116.9224 239.4445,116.9974 C239.2185,139.8764 228.9155,146.5434 218.3845,146.5434 C206.7185,146.5434 204.9755,131.1644 212.0965,127.8304 C217.5505,125.2564 220.1265,131.4674 215.2025,132.6804 C208.2335,134.3464 209.8235,144.4224 219.5955,144.4224 C226.9445,144.4224 231.9445,138.4384 232.6265,120.7094 C230.6575,123.5884 227.7025,125.7094 223.3845,125.7094 C215.6575,125.7094 208.3845,121.6934 208.2335,102.1484 L208.2335,100.8614 C208.2335,92.9824 209.6715,86.3144 212.0205,80.8614 C210.7335,80.0274 209.5205,79.2704 208.3075,78.5884" id="Fill-14" fill="#696969"></path>
                <path d="M251.1126,106.9975 C251.1126,108.2095 251.1126,109.2695 251.1866,110.3305 C264.9746,101.6185 263.3086,90.1795 258.3086,90.1795 C252.9286,90.1795 251.1126,95.4065 251.1126,106.9975 M269.5966,113.0585 C269.5966,118.9675 266.5656,125.7095 258.7626,125.7095 C250.9606,125.7095 244.2936,121.3145 244.2936,106.9975 C244.2936,95.0275 248.5366,88.0585 259.5206,88.0585 C268.0056,88.0585 275.3546,97.6035 251.2626,112.3015 C251.9446,119.9515 254.2936,123.2855 259.5206,123.2855 C263.4606,123.2855 265.7326,121.1645 265.7326,116.5435 C265.7326,115.1035 264.5206,113.8915 262.3996,113.2855 C259.8236,112.5275 260.2786,107.2255 264.3686,107.2255 C268.0816,107.2255 269.5966,110.5585 269.5966,113.0585" id="Fill-16" fill="#696969"></path>
                <path d="M279.0657,106.9975 C279.0657,108.2095 279.0657,109.2695 279.1417,110.3305 C292.9287,101.6185 291.2627,90.1795 286.2627,90.1795 C280.8837,90.1795 279.0657,95.4065 279.0657,106.9975 M297.5497,113.0585 C297.5497,118.9675 294.5207,125.7095 286.7177,125.7095 C278.9147,125.7095 272.2477,121.3145 272.2477,106.9975 C272.2477,95.0275 276.4897,88.0585 287.4757,88.0585 C295.9607,88.0585 303.3077,97.6035 279.2177,112.3015 C279.8997,119.9515 282.2477,123.2855 287.4757,123.2855 C291.4157,123.2855 293.6867,121.1645 293.6867,116.5435 C293.6867,115.1035 292.4757,113.8915 290.3547,113.2855 C287.7787,112.5275 288.2317,107.2255 292.3237,107.2255 C296.0347,107.2255 297.5497,110.5585 297.5497,113.0585" id="Fill-18" fill="#696969"></path>
                <path d="M307.3235,82.9067 C338.8395,82.4517 331.7185,55.4827 316.1865,55.4827 C311.2625,55.4827 307.6265,61.6187 307.3235,82.9067 M343.3075,110.4827 C341.2625,123.0577 336.6415,125.7097 332.6265,125.7097 C326.6415,125.7097 321.4155,122.6787 321.4155,112.6037 L321.4155,112.3017 C321.4155,105.1037 322.0205,101.9227 317.5505,101.9227 C313.6865,101.9227 307.3235,109.4227 307.3235,120.9367 L307.3235,121.1647 C307.0965,125.6337 304.6735,125.9367 301.7185,125.7097 C299.2945,125.4827 300.4285,124.3457 300.4285,118.8157 C300.4285,112.9067 300.5055,94.5727 300.5055,85.1037 L300.5055,84.7247 C294.2185,84.1947 286.8685,82.8307 278.3075,80.4827 C276.4145,79.9517 277.2475,77.7557 278.8395,78.2097 C287.3235,80.7097 294.5205,82.0727 300.5815,82.6037 C301.1865,58.8147 310.2785,53.0577 316.6415,53.0577 C334.9755,53.0577 343.8395,84.7997 307.3235,85.0277 L307.3235,85.1037 C307.3235,90.7857 307.2475,97.0727 307.2475,104.3457 C310.2785,94.1947 317.0205,87.2247 321.6415,86.0887 C330.0505,83.9677 329.1415,94.4227 322.4755,91.6187 C316.4895,89.1187 310.7335,97.6037 308.6105,106.7697 C311.4155,102.0737 315.3545,99.5727 318.3075,99.5727 C324.2185,99.5727 328.1575,102.2247 328.1575,112.3017 L328.1575,112.6037 C328.1575,119.8017 328.9135,123.3617 333.3835,123.3617 C336.2625,123.3617 339.5965,120.9367 341.1865,109.9517 C341.7185,106.3157 343.9155,106.6947 343.3075,110.4827" id="Fill-20" fill="#696969"></path>
                <path d="M84.6018,62.5092 C84.6018,62.5082 84.6738,62.1422 84.8108,61.4542 C84.9058,61.1142 84.9048,60.6782 84.9338,60.1732 C84.9938,59.6682 84.9008,59.0862 84.8418,58.4452 C84.6278,57.1732 84.1078,55.6652 83.0758,54.2532 C82.0598,52.8302 80.5768,51.5392 78.8258,50.4172 C77.9568,49.8452 76.9818,49.3572 75.9808,48.8592 C75.4818,48.6082 74.9398,48.4102 74.4148,48.1692 C73.8868,47.9812 73.3498,47.7902 72.8068,47.5972 C72.1948,47.4172 71.5748,47.2342 70.9468,47.0492 C70.2638,46.8322 69.5748,46.6132 68.8768,46.3912 C67.5408,45.8852 66.1978,45.3472 64.9118,44.7552 C64.2568,44.4662 63.5978,44.1752 62.9338,43.8822 C62.3168,43.6212 61.4688,43.2192 60.8798,42.9122 C60.5728,42.7572 60.3038,42.6292 60.0998,42.5562 C60.0018,42.5222 59.8918,42.4732 59.8458,42.4752 C59.8158,42.4692 59.7858,42.4592 59.7538,42.4472 C59.7388,42.4422 59.7958,42.4522 59.8148,42.4362 C59.8338,42.4272 59.8808,42.3902 59.8678,42.3732 L59.5988,42.4532 L59.4648,42.4922 L59.3978,42.5122 L59.3648,42.5222 L59.5888,42.4312 C59.6438,42.4052 59.6628,42.3752 59.7478,42.3072 C59.8788,42.1832 59.9998,41.9322 59.9988,41.8522 C60.0068,41.7432 59.9868,41.7942 59.9848,41.8852 C59.9788,42.0882 60.0298,42.4722 60.0638,42.9312 C60.0798,43.1742 60.0898,43.4082 60.0758,43.7252 C60.0668,43.8792 60.0448,44.1372 60.0288,44.1892 L60.0018,44.3282 L59.9728,44.4822 L59.9558,44.5512 C59.7748,45.2932 59.5928,46.0362 59.4108,46.7822 C59.0258,48.2682 58.6338,49.7512 58.1708,51.2042 L57.5128,53.3972 L57.3578,53.9462 C57.2878,54.2162 57.2438,54.3212 57.1848,54.5162 L56.8578,55.5662 C56.5068,56.9852 56.3408,58.4442 56.4348,59.8772 C56.5458,62.7762 58.1038,65.3782 60.1878,66.9362 C61.2618,67.7002 62.4148,68.2712 63.5898,68.7132 C64.1878,68.9172 64.7008,69.0842 65.3308,69.2562 C65.6568,69.3402 65.9798,69.4232 66.3018,69.5052 L66.5408,69.5702 L66.6618,69.6032 L66.7208,69.6192 C66.7908,69.6402 66.6588,69.6002 66.6818,69.6062 L66.7098,69.6122 L67.1608,69.6982 C69.5448,70.2062 71.7788,70.4492 73.8378,70.3992 C75.8908,70.3422 77.7818,69.9102 79.3378,69.1332 C80.9008,68.3632 82.0558,67.2432 82.8358,66.2102 C83.5898,65.1402 84.0168,64.2142 84.2538,63.5392 C84.4718,62.8952 84.5908,62.5412 84.6018,62.5092 L84.6018,62.5092 Z M84.9848,62.6272 C84.9848,62.6272 84.8678,62.9902 84.6498,63.6702 C84.4298,64.3442 84.0408,65.3622 83.4108,66.5712 C82.7478,67.7652 81.8178,69.2042 80.3128,70.5432 C78.8248,71.8772 76.7248,73.0612 74.2368,73.5702 C71.7558,74.0642 68.9778,73.8892 66.2928,73.1032 L65.7868,72.9592 L65.6568,72.9202 L65.5978,72.8992 L65.4828,72.8562 L65.2488,72.7692 C64.9398,72.6482 64.6278,72.5272 64.3148,72.4052 C63.6798,72.1312 62.9418,71.7512 62.2898,71.3912 C60.9988,70.6162 59.7898,69.6372 58.7358,68.4912 C56.6568,66.1382 55.4418,63.0872 55.2188,59.9702 C55.1038,58.4122 55.1718,56.8362 55.3948,55.2752 L55.5908,54.1092 C55.6178,53.9342 55.6738,53.6722 55.6768,53.5692 L55.7558,53.0022 L56.0348,50.7232 C56.2378,49.2022 56.3578,47.6832 56.4758,46.1772 C56.5508,45.4262 56.6248,44.6782 56.7008,43.9322 L56.7068,43.8622 C56.7028,43.8872 56.7228,43.7552 56.6978,43.9102 L56.6998,43.8752 L56.7108,43.7342 C56.7288,43.6002 56.6978,43.6682 56.7018,43.6352 L56.6548,43.3012 C56.6078,43.0122 56.5158,42.6572 56.4558,42.1132 C56.4328,41.8302 56.4048,41.5012 56.5038,41.0282 C56.5818,40.5852 56.8828,39.9832 57.3018,39.6192 C57.5158,39.4112 57.7068,39.3032 57.9188,39.1792 C58.0378,39.1282 57.7658,39.2332 58.2058,39.0532 L58.2378,39.0412 L58.3028,39.0162 L58.4338,38.9672 L58.6948,38.8672 C58.8638,38.8232 59.0968,38.7802 59.3018,38.7542 C59.5048,38.7292 59.7468,38.7052 59.9168,38.7122 L60.3768,38.7542 C60.7038,38.7812 60.9448,38.8532 61.2018,38.9202 C61.7058,39.0562 62.1158,39.2272 62.4758,39.3742 C63.2188,39.6892 63.7108,39.8712 64.4428,40.1432 C65.1218,40.3962 65.7948,40.6482 66.4638,40.8982 C67.7758,41.3882 69.0648,41.8712 70.3268,42.3432 C71.6038,42.7682 72.8538,43.1832 74.0698,43.5882 C74.7328,43.8452 75.4258,44.1452 76.0628,44.4352 C76.6748,44.7632 77.2948,45.0412 77.8618,45.4102 C79.0088,46.1112 80.0528,46.9042 80.9398,47.7942 C82.7508,49.5322 83.9688,51.5532 84.6628,53.4232 C85.3658,55.3042 85.5508,57.0162 85.5738,58.3892 C85.5468,59.0802 85.5538,59.6892 85.4558,60.2132 C85.3888,60.7392 85.3378,61.1842 85.2398,61.5352 L84.9868,62.6202 L84.9848,62.6272 Z" id="Fill-22" fill="#696969"></path>
                <path d="M96.6897,66.724 C96.6897,66.724 96.8087,66.356 97.0327,65.666 C97.1287,65.314 97.3147,64.907 97.5277,64.421 C97.7147,63.922 98.0357,63.404 98.3687,62.799 C99.0957,61.634 100.1387,60.264 101.7107,59.015 C103.2707,57.771 105.3557,56.668 107.8047,56.113 C109.0237,55.809 110.3267,55.668 111.6717,55.66 C112.3457,55.636 113.0217,55.717 113.7147,55.752 C114.4107,55.832 115.1597,55.933 115.8597,56.055 C117.1107,56.335 118.3947,56.624 119.7097,56.919 C121.0337,57.166 122.3867,57.418 123.7627,57.674 C124.4637,57.805 125.1717,57.937 125.8847,58.07 C126.6507,58.215 127.1667,58.312 127.9657,58.426 C128.3497,58.487 128.7897,58.551 129.2917,58.695 C129.5467,58.77 129.7907,58.833 130.0837,58.979 L130.4987,59.18 C130.6467,59.261 130.8427,59.406 131.0037,59.533 C131.1657,59.661 131.3427,59.818 131.4647,59.943 L131.6377,60.163 L131.7247,60.272 L131.7677,60.327 L131.7897,60.354 C132.0727,60.735 131.8937,60.504 131.9687,60.61 C132.0857,60.825 132.1947,61.016 132.2707,61.305 C132.4427,61.832 132.3897,62.504 132.2277,62.923 C132.0697,63.381 131.8757,63.648 131.7107,63.878 C131.3787,64.314 131.1157,64.57 130.9257,64.794 L130.7127,65.056 C130.6997,65.086 130.7097,65.012 130.6547,65.136 L130.5917,65.263 L130.5757,65.294 C130.6327,65.147 130.5827,65.272 130.5917,65.247 L130.5617,65.311 C130.2407,65.989 129.9187,66.668 129.5957,67.35 C128.9197,68.701 128.2387,70.064 127.6287,71.472 L126.6917,73.567 L126.4657,74.093 C126.4147,74.183 126.3287,74.437 126.2607,74.6 L125.8277,75.701 C125.2127,77.153 124.4587,78.538 123.5547,79.813 C121.7567,82.368 119.1427,84.355 116.1467,85.298 C114.6537,85.736 113.1117,85.951 111.6057,85.948 C110.8617,85.921 110.0347,85.866 109.3477,85.773 C109.0167,85.715 108.6877,85.659 108.3607,85.602 L108.1157,85.556 L107.9947,85.533 L107.9337,85.521 L107.8017,85.488 L107.2937,85.35 C104.5877,84.638 102.1187,83.355 100.2487,81.651 C98.3787,79.932 97.1917,77.835 96.6047,75.925 C96.0057,74 95.9517,72.288 96.0007,70.924 C96.0847,69.562 96.2757,68.489 96.4357,67.799 C96.5997,67.104 96.6867,66.733 96.6867,66.733 L96.6897,66.724 Z M97.0777,66.822 C97.0777,66.822 96.9957,67.194 96.8417,67.891 C96.6967,68.592 96.5847,69.605 96.6777,70.91 C96.8137,72.198 97.2257,73.753 98.1677,75.219 C99.0987,76.688 100.4967,78.034 102.2247,79.141 C103.9627,80.246 106.0027,81.19 108.3067,81.986 L108.7377,82.144 L108.7637,82.154 C108.7887,82.161 108.6537,82.126 108.7247,82.145 L108.7847,82.162 L108.9037,82.195 L109.1427,82.263 C109.4607,82.359 109.7817,82.454 110.1037,82.551 C110.7307,82.729 111.2557,82.85 111.8747,82.983 C113.1097,83.212 114.3907,83.317 115.7057,83.216 C118.2947,82.957 120.9707,81.532 122.5617,79.106 C123.3817,77.927 123.9927,76.592 124.4237,75.196 L124.6857,74.127 C124.7367,73.929 124.7537,73.817 124.8317,73.55 L124.9817,72.999 L125.5497,70.781 C125.9017,69.298 126.3327,67.825 126.7697,66.353 C126.9987,65.62 127.2257,64.89 127.4537,64.161 L127.4747,64.093 L127.5287,63.946 L127.5787,63.813 C127.5907,63.761 127.7057,63.528 127.7777,63.391 C127.9287,63.113 128.0577,62.918 128.1977,62.717 C128.4627,62.342 128.7057,62.04 128.8047,61.862 C128.8497,61.784 128.8577,61.729 128.8087,61.828 C128.7667,61.895 128.7417,62.174 128.7897,62.347 C128.8277,62.45 128.8287,62.485 128.8617,62.535 L129.0067,62.729 L128.9837,62.703 L128.9357,62.651 L128.8417,62.548 L128.6527,62.342 C128.6327,62.35 128.6537,62.405 128.6667,62.423 C128.6727,62.446 128.7277,62.466 128.7127,62.463 C128.6787,62.458 128.6477,62.451 128.6187,62.44 C128.5807,62.415 128.4607,62.399 128.3577,62.378 C128.1467,62.335 127.8497,62.306 127.5057,62.281 C126.8437,62.239 125.9117,62.146 125.2477,62.052 C124.5277,61.96 123.8127,61.869 123.1037,61.779 C121.6957,61.623 120.2677,61.39 118.8617,61.135 C118.1497,60.965 117.4457,60.797 116.7497,60.631 C116.1167,60.466 115.4907,60.302 114.8737,60.141 C114.3077,60.026 113.7507,59.913 113.2007,59.801 C112.6277,59.737 112.0597,59.627 111.5037,59.584 C110.3887,59.495 109.3007,59.409 108.2617,59.452 C106.1837,59.509 104.2477,59.85 102.6427,60.544 C101.0307,61.222 99.8057,62.245 98.9667,63.224 C98.5857,63.743 98.2057,64.193 97.9967,64.657 C97.7607,65.104 97.5357,65.478 97.4407,65.818 C97.2027,66.479 97.0747,66.831 97.0747,66.831 L97.0777,66.822 Z" id="Fill-24" fill="#696969"></path>
                <path d="M84.7034,60.9565 C84.7034,60.9565 90.5294,61.7495 91.9444,62.1605 C93.1504,62.5115 97.9234,64.6315 97.9234,64.6315" id="Stroke-26" stroke="#696969" stroke-width="4"></path>
                <path d="M159.096,5.1786 C161.073,17.7196 161.909,34.2876 133.483,34.2876 L127.707,34.2876 C106.274,34.2876 100.041,35.6566 100.801,40.2166 C101.789,46.3726 95.709,43.0296 94.95,38.3926 C92.973,25.8526 92.137,9.2826 120.563,9.2826 C121.246,9.2826 125.426,9.3596 126.338,9.3596 C147.772,9.3596 154.004,7.9146 153.244,3.3546 C152.18,-2.8014 158.336,0.5426 159.096,5.1786" id="Fill-28" fill="#3CA8B2"></path>
                <path d="M120.3606,16.5878 C120.0176,17.0558 119.9466,17.1458 119.0276,17.1458 C118.3976,17.1458 117.5336,17.1278 116.5966,17.0738 C116.6156,17.2178 116.6156,17.3978 116.6156,17.6318 C116.5256,20.9088 115.9136,28.4718 115.5166,28.5978 C115.1206,28.7418 114.9766,28.1478 114.9766,27.4088 C114.9766,26.6348 114.9946,18.9828 114.9946,17.9738 C114.9946,17.5958 114.9946,17.2538 115.0126,16.9658 C112.9776,16.8218 111.0876,16.6058 110.9976,16.3898 C110.8716,16.0118 111.4116,15.8678 112.1136,15.8318 C112.8706,15.8138 117.7136,15.6508 118.6686,15.6338 C120.1986,15.5798 121.0626,15.6158 120.3606,16.5878" id="Fill-30" fill="#FFFFFF"></path>
                <path d="M130.4046,16.9838 C130.3136,20.2608 129.7026,28.1478 129.3236,28.2738 C128.9276,28.3998 128.7836,27.8228 128.7836,27.0848 L128.7836,22.0618 C128.4956,22.4578 128.3696,22.5478 127.5236,22.5478 C126.1906,22.5478 124.6426,22.3498 123.6526,22.1338 C123.4186,25.1938 123.0936,28.2008 122.8596,28.2738 C122.4646,28.3998 122.3196,27.8228 122.3196,27.0848 L122.3196,17.3258 C122.3196,15.7058 122.3736,14.8228 123.3826,15.5798 C123.8686,15.9578 123.9756,16.0298 123.9406,16.9838 C123.9226,18.0458 123.8326,19.5768 123.7236,21.1608 C124.4806,21.1428 126.2096,21.0348 127.1636,21.0168 C127.8836,20.9988 128.4596,20.9818 128.7836,21.0888 L128.7836,17.3258 C128.7836,15.7058 128.8386,14.8228 129.8456,15.5798 C130.3326,15.9578 130.4396,16.0298 130.4046,16.9838" id="Fill-32" fill="#FFFFFF"></path>
                <path d="M141.4026,27.7333 C141.0956,28.2373 141.0236,28.3993 140.1246,28.3993 C137.6386,28.3993 134.3076,28.2373 133.2816,28.2733 C132.8856,28.2913 132.7596,27.8053 132.7596,27.0853 C132.7596,26.2933 132.7776,18.3343 132.7776,17.3263 C132.7776,15.7053 132.8316,14.8233 133.8406,15.5793 C133.9656,15.6693 134.0556,15.7593 134.1456,15.8313 C135.1356,15.7953 138.7376,15.6513 139.6376,15.6153 C141.1686,15.5793 142.0146,15.5973 141.3306,16.5873 C140.9886,17.0563 140.9166,17.1463 139.9986,17.1463 C138.4496,17.1463 135.9826,16.9833 134.3976,16.7683 L134.3976,16.9833 C134.3626,18.0463 134.2716,19.5763 134.1646,21.1613 C134.9206,21.1433 136.6486,21.0353 137.6216,21.0173 C139.1336,20.9813 139.9986,20.9993 139.2956,21.9713 C138.9536,22.4573 138.8816,22.5473 137.9816,22.5473 C136.6316,22.5473 135.1006,22.3493 134.0916,22.1333 C133.9296,24.3483 133.7146,26.5453 133.5156,27.6073 C133.6776,27.5713 133.8576,27.5353 134.0386,27.5173 C134.7946,27.4453 138.6836,27.0133 139.6376,26.9043 C141.1686,26.7433 142.0146,26.7073 141.4026,27.7333" id="Fill-34" fill="#FFFFFF"></path>
            </g>
        </g>
    </g>
</svg>