<?xml version="1.0" encoding="utf-8"?>
<!-- Generator: Adobe Illustrator 19.2.1, SVG Export Plug-In . SVG Version: 6.00 Build 0)  -->
<svg version="1.1" id="Layer_1" xmlns="http://www.w3.org/2000/svg" xmlns:xlink="http://www.w3.org/1999/xlink" x="0px" y="0px"
	 viewBox="0 0 33 33" style="enable-background:new 0 0 33 33;" xml:space="preserve">
<style type="text/css">
	.st0{fill:#FFFFFF;}
</style>
<g>
	<g>
		<path class="st0" d="M16.4,2.2c8,0,14.4,6.5,14.4,14.4S24.4,31,16.4,31C8.5,31,2,24.5,2,16.6S8.5,2.2,16.4,2.2 M16.4,0.2
			C7.4,0.2,0,7.5,0,16.6C0,25.6,7.4,33,16.4,33c9.1,0,16.4-7.4,16.4-16.4C32.9,7.5,25.5,0.2,16.4,0.2L16.4,0.2z"/>
	</g>
	<g>
		<path class="st0" d="M25.5,8.7c-0.8,0.5-1.6,0.8-2.5,1c-0.7-0.8-1.7-1.3-2.9-1.3c-2.2,0-3.9,1.9-3.9,4.1c0,0.3,0,0.6,0.1,0.9
			c-3.3-0.2-6.2-1.8-8.1-4.3c-0.3,0.6-0.5,1.3-0.5,2.1c0,1.4,0.7,2.7,1.8,3.4c-0.6,0-1.3-0.2-1.8-0.5c0,0,0,0,0,0.1
			c0,2,1.4,3.7,3.2,4.1c-0.3,0.1-0.7,0.1-1,0.1c-0.3,0-0.5,0-0.7-0.1c0.5,1.6,2,2.8,3.7,2.9c-1.3,1.1-3,1.8-4.9,1.8
			c-0.3,0-0.6,0-0.9-0.1c1.7,1.2,3.8,1.9,6,1.9c7.2,0,11.2-6.3,11.2-11.8c0-0.2,0-0.4,0-0.5c0.8-0.6,1.4-1.3,2-2.1
			c-0.7,0.3-1.5,0.6-2.3,0.7C24.6,10.4,25.2,9.6,25.5,8.7z"/>
	</g>
</g>
</svg>
