<?xml version="1.0" encoding="utf-8"?>
<!-- Generator: Adobe Illustrator 19.2.1, SVG Export Plug-In . SVG Version: 6.00 Build 0)  -->
<svg version="1.1" id="Layer_1" xmlns="http://www.w3.org/2000/svg" xmlns:xlink="http://www.w3.org/1999/xlink" x="0px" y="0px"
	 viewBox="0 0 33 33" style="enable-background:new 0 0 33 33;" xml:space="preserve">
<style type="text/css">
	.st0{fill:#FFFFFF;}
</style>
<g>
	<g>
		<path class="st0" d="M16.3,2.4c7.9,0,14.3,6.4,14.3,14.3c0,7.9-6.4,14.3-14.3,14.3C8.4,31,2,24.6,2,16.7C2,8.8,8.4,2.4,16.3,2.4
			 M16.3,0.4C7.3,0.4,0,7.7,0,16.7C0,25.7,7.3,33,16.3,33c9,0,16.3-7.3,16.3-16.3C32.7,7.7,25.3,0.4,16.3,0.4L16.3,0.4z"/>
	</g>
	<g>
		<path class="st0" d="M22.4,16H10.3c-1.9,0-3.5,1.6-3.5,3.6v2.9c0,2,1.6,3.6,3.5,3.6h12.1c1.9,0,3.5-1.6,3.5-3.6v-2.9
			C25.8,17.6,24.3,16,22.4,16z M12.8,18.3h-1.1v5.8h-1.1v-5.8H9.5v-1h3.3V18.3z M16,24.1h-1v-0.6c-0.2,0.2-0.4,0.4-0.6,0.5
			c-0.2,0.1-0.4,0.2-0.6,0.2c-0.2,0-0.4-0.1-0.5-0.2c-0.1-0.2-0.2-0.4-0.2-0.7v-4.2h1v3.9c0,0.1,0,0.2,0.1,0.3
			c0,0.1,0.1,0.1,0.2,0.1c0.1,0,0.2,0,0.3-0.1c0.1-0.1,0.2-0.2,0.3-0.3v-3.8h1V24.1z M19.5,23.1c0,0.4-0.1,0.6-0.2,0.8
			c-0.2,0.2-0.4,0.3-0.7,0.3c-0.2,0-0.4,0-0.5-0.1c-0.1-0.1-0.3-0.2-0.4-0.3v0.4h-1v-6.8h1v2.2c0.1-0.2,0.3-0.3,0.4-0.4
			c0.1-0.1,0.3-0.1,0.4-0.1c0.3,0,0.5,0.1,0.7,0.3c0.2,0.2,0.2,0.5,0.2,0.9V23.1z M22.8,21.7H21v0.9c0,0.3,0,0.4,0.1,0.6
			c0.1,0.1,0.2,0.2,0.3,0.2c0.2,0,0.3,0,0.3-0.1c0.1-0.1,0.1-0.3,0.1-0.6v-0.2h1v0.3c0,0.5-0.1,0.9-0.4,1.2
			c-0.2,0.3-0.6,0.4-1.1,0.4c-0.4,0-0.8-0.1-1-0.4c-0.2-0.3-0.4-0.7-0.4-1.1v-2.3c0-0.4,0.1-0.8,0.4-1.1c0.3-0.3,0.6-0.4,1.1-0.4
			c0.4,0,0.8,0.1,1,0.4c0.2,0.3,0.4,0.6,0.4,1.1V21.7z"/>
		<path class="st0" d="M21.4,19.8c-0.2,0-0.3,0-0.3,0.1C21,20.1,21,20.2,21,20.4v0.5h0.9v-0.5c0-0.2,0-0.4-0.1-0.5
			C21.7,19.9,21.6,19.8,21.4,19.8z"/>
		<path class="st0" d="M18.1,19.8c-0.1,0-0.1,0-0.2,0c-0.1,0-0.1,0.1-0.2,0.2v3.1c0.1,0.1,0.2,0.1,0.2,0.2c0.1,0,0.2,0.1,0.2,0.1
			c0.1,0,0.2,0,0.3-0.1c0.1-0.1,0.1-0.2,0.1-0.3v-2.6c0-0.2,0-0.3-0.1-0.4C18.3,19.9,18.2,19.8,18.1,19.8z"/>
		<polygon class="st0" points="10.4,7.2 11.9,11.6 11.9,14.5 13.1,14.5 13.1,11.5 14.5,7.2 13.3,7.2 12.5,10.1 12.4,10.1 11.6,7.2 
					"/>
		<path class="st0" d="M15,9.3c-0.3,0.2-0.4,0.6-0.4,1v2.8c0,0.5,0.1,0.8,0.4,1.1c0.3,0.3,0.7,0.4,1.1,0.4c0.5,0,0.9-0.1,1.2-0.4
			c0.3-0.3,0.4-0.6,0.4-1.1v-2.8c0-0.4-0.1-0.8-0.4-1C17,9.1,16.7,9,16.2,9C15.7,9,15.3,9.1,15,9.3z M16.6,10.3v3
			c0,0.1,0,0.3-0.1,0.3c-0.1,0.1-0.2,0.1-0.4,0.1c-0.1,0-0.3,0-0.3-0.1c-0.1-0.1-0.1-0.2-0.1-0.3v-3c0-0.1,0-0.2,0.1-0.3
			c0.1-0.1,0.2-0.1,0.3-0.1c0.1,0,0.3,0,0.3,0.1C16.6,10.1,16.6,10.2,16.6,10.3z"/>
		<path class="st0" d="M21.7,14.5V9.1h-1.1v4.1c-0.1,0.1-0.2,0.2-0.3,0.3c-0.1,0.1-0.2,0.1-0.3,0.1c-0.1,0-0.2,0-0.2-0.1
			c0-0.1-0.1-0.1-0.1-0.3V9.1h-1.1v4.5c0,0.3,0.1,0.6,0.2,0.7c0.1,0.2,0.3,0.2,0.6,0.2c0.2,0,0.4-0.1,0.6-0.2
			c0.2-0.1,0.4-0.3,0.6-0.5v0.6H21.7z"/>
	</g>
</g>
</svg>
